<svg version="1.1" id="el_YcjO_MBQU" xmlns="http://www.w3.org/2000/svg" xmlns:xlink="http://www.w3.org/1999/xlink" x="0px" y="0px" viewBox="0 0 252 252" style="enable-background:new 0 0 252 252;" xml:space="preserve"><style>@-webkit-keyframes el_IdIikq_dvh_OBjuOgV3h_Animation{0%{-webkit-transform: rotate(0deg);transform: rotate(0deg);}13.33%{-webkit-transform: rotate(8deg);transform: rotate(8deg);}27.78%{-webkit-transform: rotate(-4deg);transform: rotate(-4deg);}32.22%{-webkit-transform: rotate(4deg);transform: rotate(4deg);}33.33%{-webkit-transform: rotate(0deg);transform: rotate(0deg);}100%{-webkit-transform: rotate(0deg);transform: rotate(0deg);}}@keyframes el_IdIikq_dvh_OBjuOgV3h_Animation{0%{-webkit-transform: rotate(0deg);transform: rotate(0deg);}13.33%{-webkit-transform: rotate(8deg);transform: rotate(8deg);}27.78%{-webkit-transform: rotate(-4deg);transform: rotate(-4deg);}32.22%{-webkit-transform: rotate(4deg);transform: rotate(4deg);}33.33%{-webkit-transform: rotate(0deg);transform: rotate(0deg);}100%{-webkit-transform: rotate(0deg);transform: rotate(0deg);}}@-webkit-keyframes el_W41tlu2XLN_aaM4p98FD_Animation{0%{-webkit-transform: rotate(0deg);transform: rotate(0deg);}4.44%{-webkit-transform: rotate(4deg);transform: rotate(4deg);}20%{-webkit-transform: rotate(-4deg);transform: rotate(-4deg);}33.33%{-webkit-transform: rotate(0deg);transform: rotate(0deg);}100%{-webkit-transform: rotate(0deg);transform: rotate(0deg);}}@keyframes el_W41tlu2XLN_aaM4p98FD_Animation{0%{-webkit-transform: rotate(0deg);transform: rotate(0deg);}4.44%{-webkit-transform: rotate(4deg);transform: rotate(4deg);}20%{-webkit-transform: rotate(-4deg);transform: rotate(-4deg);}33.33%{-webkit-transform: rotate(0deg);transform: rotate(0deg);}100%{-webkit-transform: rotate(0deg);transform: rotate(0deg);}}@-webkit-keyframes el_oclQoUe-tp__WdhRhpvK_Animation{0%{-webkit-transform: rotate(0deg);transform: rotate(0deg);}10%{-webkit-transform: rotate(6deg);transform: rotate(6deg);}20%{-webkit-transform: rotate(-5deg);transform: rotate(-5deg);}33.33%{-webkit-transform: rotate(0deg);transform: rotate(0deg);}100%{-webkit-transform: rotate(0deg);transform: rotate(0deg);}}@keyframes el_oclQoUe-tp__WdhRhpvK_Animation{0%{-webkit-transform: rotate(0deg);transform: rotate(0deg);}10%{-webkit-transform: rotate(6deg);transform: rotate(6deg);}20%{-webkit-transform: rotate(-5deg);transform: rotate(-5deg);}33.33%{-webkit-transform: rotate(0deg);transform: rotate(0deg);}100%{-webkit-transform: rotate(0deg);transform: rotate(0deg);}}@-webkit-keyframes el_xYgJaIfxD4_Animation{0%{opacity: 1;}100%{opacity: 1;}}@keyframes el_xYgJaIfxD4_Animation{0%{opacity: 1;}100%{opacity: 1;}}@-webkit-keyframes el_xYgJaIfxD4_GGKLsGX0d_Animation{0%{-webkit-transform: rotate(0deg);transform: rotate(0deg);}100%{-webkit-transform: rotate(0deg);transform: rotate(0deg);}}@keyframes el_xYgJaIfxD4_GGKLsGX0d_Animation{0%{-webkit-transform: rotate(0deg);transform: rotate(0deg);}100%{-webkit-transform: rotate(0deg);transform: rotate(0deg);}}@-webkit-keyframes el_xYgJaIfxD4_ZoTt5IihW_Animation{0%{-webkit-transform: translate(0px, 0px);transform: translate(0px, 0px);}7.78%{-webkit-transform: translate(0px, 25px);transform: translate(0px, 25px);}16.67%{-webkit-transform: translate(0px, 0px);transform: translate(0px, 0px);}24.44%{-webkit-transform: translate(0px, 25px);transform: translate(0px, 25px);}100%{-webkit-transform: translate(0px, 25px);transform: translate(0px, 25px);}}@keyframes el_xYgJaIfxD4_ZoTt5IihW_Animation{0%{-webkit-transform: translate(0px, 0px);transform: translate(0px, 0px);}7.78%{-webkit-transform: translate(0px, 25px);transform: translate(0px, 25px);}16.67%{-webkit-transform: translate(0px, 0px);transform: translate(0px, 0px);}24.44%{-webkit-transform: translate(0px, 25px);transform: translate(0px, 25px);}100%{-webkit-transform: translate(0px, 25px);transform: translate(0px, 25px);}}@-webkit-keyframes el_xYgJaIfxD4_C60d3WhwQ_Animation{0%{-webkit-transform: scale(1, 0);transform: scale(1, 0);}7.78%{-webkit-transform: scale(1, 0);transform: scale(1, 0);}16.67%{-webkit-transform: scale(1, 1);transform: scale(1, 1);}24.44%{-webkit-transform: scale(1, 0);transform: scale(1, 0);}100%{-webkit-transform: scale(1, 0);transform: scale(1, 0);}}@keyframes el_xYgJaIfxD4_C60d3WhwQ_Animation{0%{-webkit-transform: scale(1, 0);transform: scale(1, 0);}7.78%{-webkit-transform: scale(1, 0);transform: scale(1, 0);}16.67%{-webkit-transform: scale(1, 1);transform: scale(1, 1);}24.44%{-webkit-transform: scale(1, 0);transform: scale(1, 0);}100%{-webkit-transform: scale(1, 0);transform: scale(1, 0);}}@-webkit-keyframes el_2PESNWbKad_Animation{0%{opacity: 1;}100%{opacity: 1;}}@keyframes el_2PESNWbKad_Animation{0%{opacity: 1;}100%{opacity: 1;}}@-webkit-keyframes el_2PESNWbKad_aApEtZIOi_Animation{0%{-webkit-transform: scale(1, 1);transform: scale(1, 1);}7.78%{-webkit-transform: scale(1.25, 0);transform: scale(1.25, 0);}24.44%{-webkit-transform: scale(1.25, 0);transform: scale(1.25, 0);}33.33%{-webkit-transform: scale(1, 1);transform: scale(1, 1);}100%{-webkit-transform: scale(1, 1);transform: scale(1, 1);}}@keyframes el_2PESNWbKad_aApEtZIOi_Animation{0%{-webkit-transform: scale(1, 1);transform: scale(1, 1);}7.78%{-webkit-transform: scale(1.25, 0);transform: scale(1.25, 0);}24.44%{-webkit-transform: scale(1.25, 0);transform: scale(1.25, 0);}33.33%{-webkit-transform: scale(1, 1);transform: scale(1, 1);}100%{-webkit-transform: scale(1, 1);transform: scale(1, 1);}}@-webkit-keyframes el_2PESNWbKad_QceIOpgdPG8_Animation{0%{-webkit-transform: rotate(0deg);transform: rotate(0deg);}100%{-webkit-transform: rotate(0deg);transform: rotate(0deg);}}@keyframes el_2PESNWbKad_QceIOpgdPG8_Animation{0%{-webkit-transform: rotate(0deg);transform: rotate(0deg);}100%{-webkit-transform: rotate(0deg);transform: rotate(0deg);}}@-webkit-keyframes el_2PESNWbKad_7dGA6SUUG_Animation{0%{-webkit-transform: translate(0px, 0px);transform: translate(0px, 0px);}7.78%{-webkit-transform: translate(0px, -50px);transform: translate(0px, -50px);}24.44%{-webkit-transform: translate(0px, -50px);transform: translate(0px, -50px);}33.33%{-webkit-transform: translate(0px, 0px);transform: translate(0px, 0px);}100%{-webkit-transform: translate(0px, 0px);transform: translate(0px, 0px);}}@keyframes el_2PESNWbKad_7dGA6SUUG_Animation{0%{-webkit-transform: translate(0px, 0px);transform: translate(0px, 0px);}7.78%{-webkit-transform: translate(0px, -50px);transform: translate(0px, -50px);}24.44%{-webkit-transform: translate(0px, -50px);transform: translate(0px, -50px);}33.33%{-webkit-transform: translate(0px, 0px);transform: translate(0px, 0px);}100%{-webkit-transform: translate(0px, 0px);transform: translate(0px, 0px);}}#el_YcjO_MBQU *{-webkit-animation-duration: 2s;animation-duration: 2s;-webkit-animation-timing-function: cubic-bezier(0, 0, 1, 1);animation-timing-function: cubic-bezier(0, 0, 1, 1);}#el_sjVp0lwSKb{fill: #E992A0;}#el_iSliNnI8ze{fill: #D31F3D;}#el_h2KFzC_46S{fill: #D31F3D;}#el_z35mlT2cHp{fill: #D31F3D;}#el_XlUr7CkIaF{fill: #423C3E;}#el_MadwyTZRpw{fill: #F6A823;}#el_1g9IOLPi60{fill: #050708;}#el_CJZk4dRATW{fill: #050708;}#el_2PESNWbKad{fill: #2E272A;-webkit-animation-name: el_2PESNWbKad_Animation;animation-name: el_2PESNWbKad_Animation;opacity: 1;}#el_6UilWCTI57{fill: #FCFCFB;}#el_oclQoUe-tp{fill: #D31F3D;}#el_W41tlu2XLN{fill: #D31F3D;}#el_IdIikq_dvh{fill: #D31F3D;}#el_xYgJaIfxD4{fill: #2E272A;-webkit-animation-name: el_xYgJaIfxD4_Animation;animation-name: el_xYgJaIfxD4_Animation;opacity: 1;}#el_2PESNWbKad_7dGA6SUUG{-webkit-animation-name: el_2PESNWbKad_7dGA6SUUG_Animation;animation-name: el_2PESNWbKad_7dGA6SUUG_Animation;-webkit-transform-origin: 50% 50%;transform-origin: 50% 50%;transform-box: fill-box;-webkit-transform: translate(0px, 0px);transform: translate(0px, 0px);}#el_2PESNWbKad_QceIOpgdPG8{-webkit-animation-name: el_2PESNWbKad_QceIOpgdPG8_Animation;animation-name: el_2PESNWbKad_QceIOpgdPG8_Animation;-webkit-transform-origin: 50% 50%;transform-origin: 50% 50%;transform-box: fill-box;-webkit-transform: rotate(0deg);transform: rotate(0deg);}#el_2PESNWbKad_aApEtZIOi{-webkit-animation-name: el_2PESNWbKad_aApEtZIOi_Animation;animation-name: el_2PESNWbKad_aApEtZIOi_Animation;-webkit-transform-origin: 50% 50%;transform-origin: 50% 50%;transform-box: fill-box;-webkit-transform: scale(1, 1);transform: scale(1, 1);}#el_xYgJaIfxD4_Mypq8HgY1{-webkit-transform-origin: 50% 50%;transform-origin: 50% 50%;transform-box: fill-box;-webkit-transform: rotate(0deg);transform: rotate(0deg);}#el_xYgJaIfxD4_FUnjK-2bWp{-webkit-transform-origin: 50% 50%;transform-origin: 50% 50%;transform-box: fill-box;-webkit-transform: scale(1, 1);transform: scale(1, 1);}#el_xYgJaIfxD4_C60d3WhwQ{-webkit-animation-name: el_xYgJaIfxD4_C60d3WhwQ_Animation;animation-name: el_xYgJaIfxD4_C60d3WhwQ_Animation;-webkit-transform-origin: 50% 50%;transform-origin: 50% 50%;transform-box: fill-box;-webkit-transform: scale(1, 0);transform: scale(1, 0);}#el_xYgJaIfxD4_ZoTt5IihW{-webkit-animation-name: el_xYgJaIfxD4_ZoTt5IihW_Animation;animation-name: el_xYgJaIfxD4_ZoTt5IihW_Animation;-webkit-transform-origin: 50% 50%;transform-origin: 50% 50%;transform-box: fill-box;-webkit-transform: translate(0px, 0px);transform: translate(0px, 0px);}#el_xYgJaIfxD4_GGKLsGX0d{-webkit-animation-name: el_xYgJaIfxD4_GGKLsGX0d_Animation;animation-name: el_xYgJaIfxD4_GGKLsGX0d_Animation;-webkit-transform-origin: 50% 50%;transform-origin: 50% 50%;transform-box: fill-box;-webkit-transform: rotate(0deg);transform: rotate(0deg);}#el_oclQoUe-tp__WdhRhpvK{-webkit-animation-name: el_oclQoUe-tp__WdhRhpvK_Animation;animation-name: el_oclQoUe-tp__WdhRhpvK_Animation;-webkit-transform-origin: 50% 50%;transform-origin: 50% 50%;transform-box: fill-box;-webkit-transform: rotate(0deg);transform: rotate(0deg);}#el_W41tlu2XLN_aaM4p98FD{-webkit-animation-name: el_W41tlu2XLN_aaM4p98FD_Animation;animation-name: el_W41tlu2XLN_aaM4p98FD_Animation;-webkit-transform-origin: 50% 50%;transform-origin: 50% 50%;transform-box: fill-box;-webkit-transform: rotate(0deg);transform: rotate(0deg);}#el_IdIikq_dvh_OBjuOgV3h{-webkit-animation-name: el_IdIikq_dvh_OBjuOgV3h_Animation;animation-name: el_IdIikq_dvh_OBjuOgV3h_Animation;-webkit-transform-origin: 50% 50%;transform-origin: 50% 50%;transform-box: fill-box;-webkit-transform: rotate(0deg);transform: rotate(0deg);}</style>

<g id="el_58AwqWv6zT">
	<path d="M-117.1,321.6c-0.1,0-0.2,0-0.4,0c0-1.8,0-3.7,0-5.5c0.1,0,0.3,0,0.4,0C-116,317.9-116,319.7-117.1,321.6z" id="el_sjVp0lwSKb"/>
	<path d="M174.3-92.6" id="el_iSliNnI8ze"/>
	<path d="M171.1-54.2c4.1,1.8,8.5,17.5,7.3,21.6C174.5-19,173.2-5,173.4,9.1c0.1,3.9-0.3,7.6-1.9,11.1&#10;&#9;&#9;c-1.6,3.6-3.5,7.1-5.5,10.5c-8.6,14.8-18.5,28.8-28.8,42.4c-12.2,16.3-25,32.1-38.3,47.5c-14.9,17.2-30.3,34-46.8,49.8&#10;&#9;&#9;c-10.7,10.2-21.7,20.1-33.5,29c-9.3,7.1-19,13.6-29.8,18.2c-18.7,7.9-36.9,16.4-54,27.4c-5.2,3.4-10.3,7-15,11.1&#10;&#9;&#9;c-1.1,0.9-2.4,1.9-1.9,3.7c0.5,2,1.9,2.6,4.6,2c9.7-2.2,19.4-4.4,29.2-6.6c1.2-0.3,2.5-0.5,3.7-0.8c0.6-0.1,1.1,0.2,1.4,0.7&#10;&#9;&#9;c0.3,0.7-0.3,1.1-0.7,1.3c-0.7,0.4-1.5,0.7-2.3,1.1c-19.7,9.6-38.3,21-56.4,33.3c-8.7,6-13.6,14.4-14.5,25c0,1.9,0,3.7,0,5.6&#10;&#9;&#9;c0.9,6.7,1.6,13.5,2.6,20.2c0.8,5.1,1.6,10.2,3.7,15c2.4,5.4,5.8,6.9,11.2,4.8c2.4-0.9,4.5-2.3,6.6-3.8&#10;&#9;&#9;c7.2-5.1,13.5-11.1,19.8-17.3c8.1-8,16.2-16,24.5-23.8c8.9-8.4,18-16.5,27.4-24.4c14.1-11.8,28.6-22.8,43.9-32.9&#10;&#9;&#9;c2.5-1.6,4.9-2.7,7.9-2.2c1.8,0.3,3.5,0.2,5.3,0.2c11.9,0.1,23.8-0.2,35.7-0.6c8.5-0.3,16.9-0.9,25.4-1.6&#10;&#9;&#9;c10.4-0.9,20.8-2.2,31.1-3.6c0.8,0.6,1.7,0.4,2.7,0.2c3.5-0.5,6.9-1.3,10.5-1.7c1.5-0.4,3-0.7,4.6-1c9.4-1.9,18.7-4.1,27.9-6.8&#10;&#9;&#9;c3.3-0.9,6.6-2,9.9-3c0.9-0.3,1.8-0.5,2.3-1.4c8.4-3.1,16.8-6.2,24.9-10c21.9-10.3,41.5-23.6,57.3-42.2&#10;&#9;&#9;c15.7-18.5,25.4-39.8,29.7-63.6c2.6-14.2,3-28.5,1.6-42.9c-0.8-8.9-2.1-17.8-4.9-26.4c-0.6-0.6-1.3-0.3-2-0.3&#10;&#9;&#9;c-2.6,0.1-5.1,0-7.6-0.5c-4.6-0.9-7.6-4.5-7.5-8.9c0.1-6.3-3-10.7-8.6-13.6c-2.1-1.1-4.3-2-6.6-2.4c-6.8-1.5-13-4.3-19-7.8&#10;&#9;&#9;c-6.6-3.8-13.3-7.2-19.2-12.2c-2.1-1.7-4.1-3.5-5.6-5.8c-2.4-3.6-1.5-6.5,2.6-8c1.6-0.6,3.3-1.2,5-1c4.9,0.4,8.4-1.9,11.9-4.9&#10;&#9;&#9;c4.3-3.6,9.2-4,14.4-1.9c1.4,0.6,2.8,1.1,4.2,1.6c5.8,2,11.6,4.2,17.9,4.6c3.8,0.2,7-1,9.7-3.8c3.8-3.8,4.6-15,2.2-19.4&#10;&#9;&#9;c-4.2-4.8-9.2-8.6-14.9-11.4c-5.2-2.6-10.6-4.6-16.5-4c-2.8,0.3-5.2-0.4-7.4-1.8c-5.6-3.4-10.6-7.6-15-12.4&#10;&#9;&#9;c-6-6.5-12.1-12.9-19.1-18.4" id="el_h2KFzC_46S"/>
	<path d="M166.5-56.9" id="el_z35mlT2cHp"/>
	<path d="M294.6,52.7c-3.7,0.7-7.3,0.6-10.9-0.4c-4.1-1.2-6.7-4.5-6.8-8.5c-0.3-7.9-3.4-12.3-10.9-14.9&#10;&#9;&#9;c-2.6-0.9-5.2-1.7-7.9-2.4c-7.1-1.7-13-5.8-19.3-9.1c-6.8-3.7-13.4-7.7-18.8-13.3c-2-2.1-4.2-4.4-3.3-7.6c0.9-3.1,3.8-3.7,6.5-4.4&#10;&#9;&#9;c1.8-0.4,3.6-0.9,5.4-0.7c2.5,0.3,4.3-0.7,6.1-2.3c1.1-1,2.3-1.8,3.5-2.7c4.4-3.2,9.1-3.5,14.1-1.6c6.1,2.4,12.3,4.5,18.8,5.9&#10;&#9;&#9;c6.8,1.4,12.2-0.9,14.4-6.2c1.5-3.6,1.8-7.4,1.3-11.3c-0.2-1.6-0.4-3.2-0.6-4.8c5.9,6,9.8,13.2,12.8,20.9c0.2,0.5,0.4,1.1,0.6,1.6&#10;&#9;&#9;c-0.9,2.1-3,2.9-4.5,4.3c-3.1,2.8-5.9,5.7-7.6,9.5c-1.8,3.9-0.9,7,2.5,9.5c2.7,1.9,5.7,3.1,8.9,3.8c2.1,0.5,4.1,1,6,2.1&#10;&#9;&#9;c2.6,1.6,3.6,4,3.4,6.8c-0.2,2.9-1,5.6-2.9,7.8c-0.8,1.1-1.8,2-3,2.6C296.2,40.6,293.5,45.8,294.6,52.7z" id="el_XlUr7CkIaF"/>
	<path d="M305.4,34.8c0.8-2.2,2-4.3,2.4-6.8c0.5-4.3-1.1-7.1-5.2-8.5c-2.4-0.8-4.9-1.4-7.3-2.1&#10;&#9;&#9;c-0.4-0.1-0.8-0.3-1.2-0.5c-9-3.6-10.5-9.6-4.2-17.1c2.9-3.4,6.3-6.3,9.8-9c0.2,1.3,1.2,1.6,2.2,2c10.5,4.2,21,8.4,31.5,12.6&#10;&#9;&#9;c0.6,0.3,1.3,0.6,1.7,0.8c-1.8,1.9-3.4,3.9-5.3,5.7c-7.6,7.3-15.3,14.5-23,21.7C306.3,34.2,305.8,34.5,305.4,34.8z" id="el_MadwyTZRpw"/>
	<path d="M198.7,269.2c-4.6,0-9.2,0-13.8,0c-0.7-0.4-1-1.1-1.3-1.8c-3.2-7.6-6.3-15.3-9.5-22.9&#10;&#9;&#9;c-0.4-0.9-0.9-1.8-0.5-2.8c4.1-1.3,8.2-2.5,12.3-3.8c4.2,10.3,8.5,20.5,12.7,30.8C198.6,268.8,198.7,269,198.7,269.2z" id="el_1g9IOLPi60"/>
	<path d="M149,268.8c-0.8,0.7-1.7,0.4-2.6,0.4c-3.7-0.1-7.4,0.4-11.1-0.3c-2.4-5.8-4.8-11.7-7.2-17.5&#10;&#9;&#9;c3.9-0.7,7.8-1.3,11.7-2c0.4-0.1,0.8-0.1,1.2,0.1c0.9,0.2,1.1,1,1.4,1.7c2.2,5.2,4.3,10.4,6.5,15.6&#10;&#9;&#9;C149.1,267.4,149.4,268.1,149,268.8z" id="el_CJZk4dRATW"/>
	<g id="el_2PESNWbKad_7dGA6SUUG" data-animator-group="true" data-animator-type="0"><g id="el_2PESNWbKad_QceIOpgdPG8" data-animator-group="true" data-animator-type="1"><g id="el_2PESNWbKad_aApEtZIOi" data-animator-group="true" data-animator-type="2"><path d="M252.3,114.7c0,18.2-6,33.1-16.7,46.3c-9.9,12.3-22.4,21.3-36.3,28.6c-20.4,10.8-42.3,17.4-64.8,22.4&#10;&#9;&#9;c-14,3.1-28.2,5.2-42.4,7c-11.2,1.4-20.6-9.2-17.9-20.2c2.7-11.3,8.3-21.2,15.2-30.3c10-13.2,22.4-23.9,35.9-33.4&#10;&#9;&#9;c13.7-9.6,28.3-17.6,43.2-24.8c0.8-0.4,1.7-0.8,2.6-1c1.1-0.2,2.4-0.2,3,1c0.6,1.2,0.3,2.3-0.8,3.2c-2.7,2.2-5.5,4.5-8.2,6.7&#10;&#9;&#9;c-11.3,9.2-22.1,19-32,29.7c-5.1,5.5-9.8,11.4-12.8,18.4c-2.9,6.9-0.4,12.1,6.8,13.9c2.4,0.6,4.8,0.9,7.3,1&#10;&#9;&#9;c20.9,0.8,39.2-6.4,56.3-17.7c16.2-10.7,29.6-24.3,41.7-39.3c5.1-6.3,9.8-12.8,14.2-19.6c0.7-1.2,1.6-2,3.1-1.6&#10;&#9;&#9;c1.3,0.4,1.8,1.4,1.9,2.8C252,110.5,252.4,113.1,252.3,114.7z" id="el_2PESNWbKad"/></g></g></g>
	<path d="M266.1,6c0,3.4-2.7,6.2-6.1,6.3c-3.6,0.1-6.3-2.6-6.3-6.2c0-3.6,2.6-6.3,6.2-6.3C263.2-0.3,266.1,2.6,266.1,6z&#10;&#9;&#9;" id="el_6UilWCTI57"/>
</g>
<g id="el_oclQoUe-tp__WdhRhpvK" data-animator-group="true" data-animator-type="1"><path d="M174.4-91.9c0,0-1.9-8,22.2,1.7c0,0,17.3,8.5,23.1,16.1c5.8,7.6-24.6,0.7-24.6,0.7S197-79.2,174.4-91.9z" id="el_oclQoUe-tp"/></g>
<g id="el_W41tlu2XLN_aaM4p98FD" data-animator-group="true" data-animator-type="1"><path d="M162.6-77c0,0,20.4-4.1,32.2,0.5c11.8,4.6,6.9,12.6,6.9,12.6l-21.4,0.3L162.6-77z" id="el_W41tlu2XLN"/></g>
<g id="el_IdIikq_dvh_OBjuOgV3h" data-animator-group="true" data-animator-type="1"><path d="M165-59.2c0,0-1.8-4.5,15.3-5.5c17.1-1,16.8,5.5,16.8,5.5l-9.4,13.1c0,0-10.9-6.6-14.1-6.7S164.9-56.8,165-59.2&#10;&#9;z" id="el_IdIikq_dvh"/></g>
<g id="el_xYgJaIfxD4_ZoTt5IihW" data-animator-group="true" data-animator-type="0"><g id="el_xYgJaIfxD4_GGKLsGX0d" data-animator-group="true" data-animator-type="1"><g id="el_xYgJaIfxD4_C60d3WhwQ" data-animator-group="true" data-animator-type="2"><path d="M254.5,102.4c0-8.3-8-15.1-22.2-21.1c-13.2-5.6-29.9-9.7-48.3-13c-27.2-4.9-56.3-7.9-86.2-10.2&#10;&#9;c-18.7-1.4-37.5-2.4-56.5-3.2c-15-0.7-27.4,4.2-23.8,9.2c3.7,5.1,11,9.6,20.3,13.8c13.4,6,29.9,10.9,47.9,15.2&#10;&#9;c18.2,4.4,37.6,8,57.6,11.3c1.1,0.2,2.2,0.4,3.4,0.4c1.5,0.1,3.1,0.1,3.9-0.5c0.8-0.6,0.5-1.1-1-1.5c-3.7-1-7.3-2-10.9-3.1&#10;&#9;c-15.1-4.2-29.5-8.6-42.6-13.5c-6.8-2.5-13.1-5.2-17-8.4c-3.8-3.1-0.5-5.5,9.1-6.3c3.2-0.3,6.5-0.4,9.8-0.5&#10;&#9;c27.8-0.4,52.2,2.9,74.9,8c21.5,4.9,39.4,11,55.6,17.9c6.8,2.9,13.1,5.8,18.9,8.9c1,0.5,2.2,0.9,4.2,0.7c1.8-0.2,2.4-0.6,2.5-1.3&#10;&#9;C254.2,104.3,254.7,103.1,254.5,102.4z" id="el_xYgJaIfxD4"/></g></g></g>
<script>(function(){var a=document.querySelector('#el_YcjO_MBQU'),b=a.querySelectorAll('style'),c=function(d){b.forEach(function(f){var g=f.textContent;g&amp;&amp;(f.textContent=g.replace(/transform-box:[^;\r\n]*/gi,'transform-box: '+d))})};c('initial'),window.requestAnimationFrame(function(){return c('fill-box')})})();</script></svg>