<?xml version="1.0" encoding="utf-8"?>
<!-- Generator: Adobe Illustrator 21.1.0, SVG Export Plug-In . SVG Version: 6.00 Build 0)  -->
<svg version="1.1" id="Layer_1" xmlns="http://www.w3.org/2000/svg" xmlns:xlink="http://www.w3.org/1999/xlink" x="0px" y="0px"
	 viewBox="0 0 252 252" style="enable-background:new 0 0 252 252;" xml:space="preserve">
<style type="text/css">
	.st0{fill:#FFFFFF;stroke:#A6001D;stroke-width:2;stroke-miterlimit:10;}
	.st1{fill:#A6001D;stroke:#A6001D;stroke-width:2;stroke-miterlimit:10;}
</style>
<circle class="st0" cx="126.2" cy="126.2" r="123.8"/>
<g>
	<path class="st1" d="M224.1,186.9c-2,1.6-4.3,1-6.5,1c-61,0-122,0-183,0.2c-5.5,0-6.7-1.5-6.7-6.8c0.2-30,0-60-0.1-90
		C27.4,85.2,26.2,79,28.5,73c5.7,2.5,10.1,6.8,14.9,10.5c26.5,19.8,52.9,39.6,79.3,59.6c3.6,2.7,5.9,2.7,9.4,0
		c28.5-21.8,57.1-43.4,85.8-65.1c1.8-1.4,3.6-2.6,5.5-3.9c2,0.6,1.3,2.3,1.3,3.6c0,35.4,0,70.9,0,106.3
		C224.7,185,224.7,186,224.1,186.9z"/>
	<path class="st1" d="M34.1,69.5c62.9,0,124.1,0,185.5,0c-1,2.7-3.2,3.6-4.9,4.8c-21.1,15.7-42.3,31.3-63.5,46.9
		c-6.9,5.1-13.8,10-20.7,15c-2.6,1.9-4.3,2.3-7.6-0.5c-10.8-8.8-22.4-16.6-33.6-24.9C71.2,97.5,53.2,83.9,34.1,69.5z"/>
</g>
</svg>
