<?xml version="1.0" encoding="utf-8"?>
<!-- Generator: Adobe Illustrator 21.1.0, SVG Export Plug-In . SVG Version: 6.00 Build 0)  -->
<svg version="1.1" id="Layer_1" xmlns="http://www.w3.org/2000/svg" xmlns:xlink="http://www.w3.org/1999/xlink" x="0px" y="0px"
	 viewBox="0 0 252 252" style="enable-background:new 0 0 252 252;" xml:space="preserve">
<style type="text/css">
	.st0{fill:#FFFFFF;stroke:#A6001D;stroke-width:2;stroke-miterlimit:10;}
	.st1{fill:#FEFEFE;}
	.st2{fill:#EEEEEE;}
	.st3{fill:#F6F6F6;}
	.st4{fill:#383838;}
	.st5{fill:#F4F4F4;}
	.st6{fill:#FDFDFD;}
	.st7{fill:#FFFFFF;}
	.st8{font-family:'Calibri';}
	.st9{font-size:302.0055px;}
</style>
<g id="Layer_1_1_">
	<circle class="st0" cx="126.2" cy="126.2" r="123.8"/>
	<g>
		<path class="st1" d="M152.1,65.6c-5.3-0.7-11.5-1.7-17.4-3.8c-2.7-0.9-4.4-1.1-6.3,1.9c-3.7,5.7-10.6,5.7-14.3,0
			c-2-3-3.7-3.1-6.6-2.1c-6.1,2.1-12.4,3.6-18.9,4c-5.6,0.4-9.7-3.1-9.8-7.8c-0.1-4.9,4.4-8.5,10.1-8c6.8,0.6,13.5,2.2,19.9,4.5
			c2.6,0.9,4.2,0.9,6.4-1.3c4-4.1,8.3-4.1,12.3,0.1c1.9,2,3.2,1.8,5.4,1.1c6.4-2.3,13.1-3.8,19.9-4.4c5.6-0.5,9.7,2.9,9.8,7.8
			C162.6,62.4,158.6,65.8,152.1,65.6z"/>
		<path class="st2" d="M70,183.5c0.8-7.4,4.5-11.4,12.1-12.2C79.3,176.8,76.2,181.3,70,183.5z"/>
		<path class="st3" d="M120.3,84.1c0.9-1.2,1.3-2.8,3.1-3.5c0,4.9,0,9.7,0,14.5c-2.5,1.2-3.5,0.2-3.4-2.4
			C120.1,89.9,119.6,87,120.3,84.1z"/>
		<path class="st4" d="M25.9,162.4"/>
		<path class="st4" d="M38.5,164.4"/>
		<path class="st5" d="M120.3,84.1c0.1,2.6,0.2,5.2,0.2,7.8c-0.1,2.1,0.7,3.4,3,3.2c-1.5,1.5-3.6,2-3.8-0.5
			C119.3,91.2,118.5,87.5,120.3,84.1z"/>
		<path class="st6" d="M114.6,112.4"/>
		<path class="st6" d="M114.6,117.2"/>
	</g>
	<path class="st0" d="M225,199.7"/>
	<text transform="matrix(1.2719 0 0 1 43 231.2373)" class="st7 st8 st9">?</text>
</g>
<g id="Layer_2">
</g>
<g>
	<path class="st0" d="M31.9,71.2c10.5,4.3,11.2,1.9,21.7,6.3c1.8,0.7,2.9,1.5,2.5,4c-4.5,25.7-9.8,51.2-19.8,75.5
		c-0.1,0.2-0.3,0.4-0.8,0.9c-7.6-2.7-5.3-4.5-13-7.3 M33.6,139.9c0-4.5-3.5-8.2-8-8.2c-4.4,0-8.1,3.6-8.2,8c-0.1,4.4,3.6,8.1,8,8.2
		C30,148,33.6,144.4,33.6,139.9z"/>
	<path class="st0" d="M234.6,165.6c-0.7,0.4-1.4,0.7-3,1.6c-13.6-26-27-51.7-40.5-77.7c0.9-0.5,2.1-1.2,3.3-1.9
		c19.7-10.2,10.2,4.2,29.3-7.3"/>
	<path class="st0" d="M132.6,138.1c0.5,1.2,0.9,2.4,1.5,3.5c5.1,9.6,13.2,16.8,20.5,24.5c4.6,4.8,8.2,10.5,11.7,16.1
		c1,1.5,0.7,4.3,0.2,6.3c-1.2,4.4-4.4,6-8.6,4.5c-2.2-0.8-4.5-2-6.3-3.6c-9.1-8.3-17.9-16.8-26.9-25.1c-1.8-1.7-3.9-2.9-5.9-4.4
		c-0.2,0.3-0.4,0.5-0.6,0.8c11.2,10.6,22.4,21.1,33.8,31.8c-0.8,1.4-1.4,2.8-2.3,4.1c-3.5,4.9-7.6,5.3-12.6,1.6
		c-9.2-6.7-18.5-13.2-27.8-19.7c-1.2-0.8-2.8-1.1-4.3-1.1c9.6,6.8,19.2,13.5,28.8,20.3c-5.5,7.8-14.4,7.6-19.7,0.2
		c-2-2.8-4.1-5.7-6.5-8.2c-3.4-3.6-5.3-4.1-9.9-3.4c-2.5-11.1-6.9-14.5-16-12.2c-0.6-1-1.2-2.2-1.9-3.2c-2.1-3.1-5-5.9-8.8-5.4
		c-3.9,0.6-6.4-1.3-9.1-3.1c-7-4.8-13-10.6-16.8-18.4c-0.5-1.1-0.7-2.7-0.4-3.9c4-17.1,8-34.1,12.1-51.2c0.3-1.2,0.5-2.5,0.8-3.5
		c5.6,1.2,10.8,2.3,16.3,3.4c0,0.9,0.1,1.7,0.1,2.6c0.1,5.7,2.6,9.2,8.1,10.9c8.5,2.5,17,2.9,25.2-1.6c1-0.5,2.4-0.6,3.6-0.4
		c14.6,2.8,25.4,11.5,34.3,22.9c1.5,1.9,3.1,3.8,4.7,5.7c9.4,11.2,18.9,22.2,28.1,33.5c3.8,4.6,6.5,10,7,16.1c0.5,5-1.7,8.8-5.4,9.6
		c-3.9,0.8-9-2.5-11.1-6c-3.4-5.7-6.8-11.6-11.4-16.4c-8.1-8.5-17-16.3-22.3-27.1c-0.2-0.5-0.9-0.7-1.3-1.1
		C133.1,137.8,132.8,137.9,132.6,138.1z"/>
	<path class="st0" d="M76.4,88c1.9,0,3.7,0,5.5,0c6.6,0.2,12.7-0.9,18.2-5.1c3.9-3,8.8-3,13.4-1.8c8.6,2.2,17.2,4.5,25.7,7.2
		c7.2,2.3,13.6,6.2,19.1,11.5c4,3.9,8.6,7.4,14.4,7.7c4.1,0.3,8.2-0.9,13.5-1.5c7.9,15.5,16.3,32,25,49.2c-9.1,4.6-18,9.1-27,13.6
		c-10.7-15.8-22.6-30.2-35.6-43.7c-4.8-5-9.4-10.3-14.2-15.3c-6.7-6.9-15.7-9.1-24.6-11.5c-1-0.3-2.5,0.2-3.5,0.8
		c-8.2,4.5-16.7,4-25.1,1C76.4,98.4,75,94.6,76.4,88z"/>
	<path class="st0" d="M223.7,156.9c-2.1,1.4-4.1,2.6-6.9,4.4c-10.9-21-21.7-41.9-32.7-63.1c1.9-1.1,4.1-2.4,6.3-3.6
		C194.4,98.3,216.2,139.1,223.7,156.9z"/>
	<path class="st0" d="M95.7,187.2c-0.8,2-1.4,6.5-3.2,7.1c-2.8,0.9-6.8-0.3-9.8-1.6c-3.4-1.6-4.9-4.8-3.4-8.7
		c0.2-0.6,0.4-1.2,0.6-1.8c0.8-3.3,1.5-6.7,6-6.8c4.1-0.1,7.7,2.8,9,7.1C95.2,183.6,95.3,184.9,95.7,187.2z"/>
	<path class="st0" d="M70.4,167.3c4.2-0.4,11.2,6.3,8.6,11.2c-0.4,0.7-0.5,1.5-0.7,2.2c-1.7,6-2.5,6.3-8.3,3.8
		c-4.3-1.8-6.9-6-6.7-10.4C63.7,170.2,66.6,167.3,70.4,167.3z"/>
	<path class="st0" d="M113.3,199.2c-3.5,4.2-6.4,4.9-10.3,3.3c-3.9-1.6-7.1-5.7-6.5-9.1c0.4-1.8,1.5-4,3-4.9c1-0.6,3.7,0.1,4.8,1.1
		C107.5,192.5,110.2,195.9,113.3,199.2z"/>
	<path class="st0" d="M64.5,166.6c-0.9,1.6-1.5,2.7-2.1,3.8c-0.8,1.5-0.8,3.7-3.5,3.1c-3.6-0.8-6.9-2.4-7.5-6.2
		c-0.3-1.8,1.3-4.1,2.4-6c0.2-0.4,1.9-0.2,2.7,0.2C59.2,163,61.7,164.8,64.5,166.6z"/>
</g>
</svg>
