<?xml version="1.0" encoding="utf-8"?>
<!-- Generator: Adobe Illustrator 21.1.0, SVG Export Plug-In . SVG Version: 6.00 Build 0)  -->
<svg version="1.1" xmlns="http://www.w3.org/2000/svg" xmlns:xlink="http://www.w3.org/1999/xlink" x="0px" y="0px"
	 viewBox="0 0 252 252" style="enable-background:new 0 0 252 252;" xml:space="preserve">
<style type="text/css">
	.st0{fill:#FFFFFF;stroke:#A6001D;stroke-width:2;stroke-miterlimit:10;}
	.st1{fill:#FEFEFE;}
	.st2{fill:#EEEEEE;}
	.st3{fill:#F6F6F6;}
	.st4{fill:#383838;}
	.st5{fill:#F4F4F4;}
	.st6{fill:#FDFDFD;}
</style>
<g id="Layer_1">
	<circle class="st0" cx="126.2" cy="126.2" r="123.8"/>
	<g>
		<path class="st1" d="M152.1,65.6c-5.3-0.7-11.5-1.7-17.4-3.8c-2.7-0.9-4.4-1.1-6.3,1.9c-3.7,5.7-10.6,5.7-14.3,0
			c-2-3-3.7-3.1-6.6-2.1c-6.1,2.1-12.4,3.6-18.9,4c-5.6,0.4-9.7-3.1-9.8-7.8c-0.1-4.9,4.4-8.5,10.1-8c6.8,0.6,13.5,2.2,19.9,4.5
			c2.6,0.9,4.2,0.9,6.4-1.3c4-4.1,8.3-4.1,12.3,0.1c1.9,2,3.2,1.8,5.4,1.1c6.4-2.3,13.1-3.8,19.9-4.4c5.6-0.5,9.7,2.9,9.8,7.8
			C162.6,62.4,158.6,65.8,152.1,65.6z"/>
		<path class="st2" d="M70,183.5c0.8-7.4,4.5-11.4,12.1-12.2C79.3,176.8,76.2,181.3,70,183.5z"/>
		<path class="st3" d="M120.3,84.1c0.9-1.2,1.3-2.8,3.1-3.5c0,4.9,0,9.7,0,14.5c-2.5,1.2-3.5,0.2-3.4-2.4
			C120.1,89.9,119.6,87,120.3,84.1z"/>
		<path class="st4" d="M25.9,162.4"/>
		<path class="st4" d="M38.5,164.4"/>
		<path class="st5" d="M120.3,84.1c0.1,2.6,0.2,5.2,0.2,7.8c-0.1,2.1,0.7,3.4,3,3.2c-1.5,1.5-3.6,2-3.8-0.5
			C119.3,91.2,118.5,87.5,120.3,84.1z"/>
		<path class="st6" d="M114.6,112.4"/>
		<path class="st6" d="M114.6,117.2"/>
	</g>
	<g>
		<path class="st0" d="M127,119.9c-34.5-0.5-68.2-3.2-99.5-13.1c-7-2.2-6.9-2.2-2.3-6.2C48.7,80.1,66.7,57.8,76,33.2
			c2.2-6,7.2-8.2,15.6-9.2c22.9-2.7,45.7-2.8,68.5,0.1c7.5,1,12.1,3.1,14.7,8.1c13.1,24.7,29.2,48.6,53.7,70
			c2.4,2.1,0.8,2.7-1.8,3.6c-19.8,6.4-40.9,10.2-62.9,12.3C151.7,119.4,139.4,120,127,119.9z"/>
		<path class="st0" d="M115.5,145.7c-4.9-2.2-9.5-4.3-13.9-6.5c-4.6-2.4-4-4.1,1.7-5.4c4.2-0.9,8.5-1.7,14.5-1c-5.8,2-12,1-16.3,3.2
			c7.7,4.3,38.9,4.5,49.4,0.2c-4.3-2.3-10.3-1.5-16.2-3.1c2-0.4,2.5-0.6,3-0.6c5.6,0.3,13.4,0,15.1,3.4c1.5,2.9-5.6,4.6-9.5,6.6
			c-0.6,0.3-1.3,0.7-2,0.8c-3.8,1.1-4.1,2-1,4.3c18.4,13.4,25.3,29,20.7,46.3c-1.6,6-7.5,10.8-14.4,15.2
			c-12.9,8.2-13.8,11.9,4.6,16.6c3.1,0.8,8,1.6,7.9,3.6c-0.1,2.3-5.1,3-8.5,3.7c-15.9,3.4-32.1,3.8-48.4,1c-1-0.2-2-0.4-2.9-0.6
			c-3.5-1-8.6-1.8-8.6-4.2c0-2.3,5.3-2.7,8.4-3.7c2.7-0.8,5.6-1.5,8.4-2.4c7.2-2.4,8-4.7,3.2-8.9c-2.2-1.9-4.5-3.7-7-5.3
			c-11.7-7.8-16.6-16.9-14.6-27.5c1.9-10.4,6.6-20,15.8-28.7C107.8,150.2,111.4,148,115.5,145.7z"/>
		<path class="st0" d="M119,128.6c0-0.4,0-0.8,0-1.1c0-5.7,3.3-7.1,12.2-5.8c2.1,0.3,1.8,1.1,1.8,1.9c0,3.4-0.1,6.8,0,10.2
			c0.1,1.5-1,1.9-3.1,2.2C120.7,137.3,119,136.1,119,128.6z"/>
	</g>
</g>
<g id="Layer_2">
</g>
</svg>
