<?xml version="1.0" encoding="utf-8"?>
<!-- Generator: Adobe Illustrator 21.1.0, SVG Export Plug-In . SVG Version: 6.00 Build 0)  -->
<svg version="1.1" id="Layer_1" xmlns="http://www.w3.org/2000/svg" xmlns:xlink="http://www.w3.org/1999/xlink" x="0px" y="0px"
	 viewBox="0 0 243.5 62.7" style="enable-background:new 0 0 243.5 62.7;" xml:space="preserve">
<style type="text/css">
	.st0{fill:#FEFEFE;}
	.st1{fill:#E992A0;}
	.st2{fill:#D31F3D;}
	.st3{fill:#423C3E;}
	.st4{fill:#8B5C28;}
	.st5{fill:#F6A823;}
	.st6{fill:#050708;}
	.st7{fill:#D7C6A8;}
	.st8{fill:#432E17;}
	.st9{fill:#2E272A;}
	.st10{fill:#FCFCFB;}
	.st11{fill:#633814;}
	.st12{fill:#FFFFFF;}
	.st13{font-family:'ScriptMTBold';}
	.st14{font-size:25.4654px;}
	.st15{font-family:'LucidaSansUnicode';}
	.st16{font-size:8.4805px;}
</style>
<g>
	<path class="st0" d="M0,56.7C0,37.9,0,19.1,0,0.3C0,0.1,0.1,0,0.3,0c20,0,40.1,0,60.1,0c0.2,0,0.3,0,0.3,0.3c0,20.8,0,41.6,0,62.4
		c0,0.2,0,0.3-0.3,0.3c-20,0-40.1,0-60.1,0c-0.2,0-0.3,0-0.3-0.3c0-1.7,0-3.5,0-5.2c0,0,0.1,0,0.1,0c0.1,0.5,0.1,1,0.2,1.5
		c0.1,0.9,0.2,1.8,0.5,2.7C0.9,61.8,1,62,1.1,62.2c0.3,0.5,0.7,0.6,1.2,0.4c0.6-0.2,1.1-0.6,1.6-1c0.8-0.6,1.5-1.3,2.2-2
		c0.9-0.9,1.8-1.7,2.7-2.6c3-2.8,6.1-5.5,9.5-7.7c0.3-0.2,0.7-0.3,1.1-0.3c0.8,0,1.7,0,2.5,0c1,0,2,0,3-0.1c1.4-0.1,2.7-0.2,4.1-0.3
		c1-0.1,1.9-0.2,2.9-0.4c0.1,0,0.1,0,0.2,0c0.1,0.1,0.1,0.2,0.2,0.2c0.2,0.6,0.5,1.2,0.7,1.8c0,0.1,0.1,0.2,0,0.4
		c-0.1,0.1-0.2,0.1-0.4,0.1c-0.8,0-1.6,0-2.5,0c-0.2,0-0.4,0-0.6,0c-0.3,0-0.6,0-0.9,0c-0.2,0-0.3,0.1-0.3,0.2c0,0.3,0,0.5,0,0.8
		c0,0.2,0.1,0.2,0.2,0.2c0.1,0,0.2,0,0.2,0c5.7,0,11.3,0,17,0c0.5,0,0.5,0,0.5-0.5c0-0.8,0.1-0.7-0.7-0.7c-1.3,0-2.7,0-4,0
		c-0.1,0-0.3,0-0.4,0c-0.1,0-0.2-0.2-0.2-0.3c-0.5-1.2-1-2.4-1.5-3.6c0-0.1-0.1-0.2,0-0.3c0.3-0.2,0.7-0.3,1.1-0.5
		c2.6-1,5-2.2,7.1-4c2.6-2.2,4.5-4.8,5.6-8.1c0.5-1.4,0.7-2.8,0.9-4.2c0.1-0.8,0.1-1.7,0.1-2.5c-0.1-1.6-0.3-3.2-0.7-4.8
		c-0.2-0.8,0.1-1.6,1-2.1c0.2-0.1,0.3-0.2,0.4-0.3c0.8-0.8,1.6-1.5,2.4-2.3c0.4-0.4,0.8-0.8,1.2-1.1c0.2-0.2,0.2-0.2-0.1-0.3
		c-1.3-0.5-2.6-1.1-3.9-1.6c-0.2-0.1-0.3-0.2-0.4-0.4c-0.4-1.1-0.9-2-1.7-2.9c-1-1-2.1-1.7-3.5-2c-0.2,0-0.4-0.1-0.6,0
		c-0.2,0.1-0.5,0-0.7-0.1c-0.6-0.3-1.1-0.7-1.6-1.2c-0.5-0.4-0.9-1-1.4-1.5c-1.2-1.2-2.6-2.4-4.2-3c-0.6-0.3-1.2-0.4-1.9-0.4
		c0,0-0.1,0-0.1,0c-0.1,0-0.3,0-0.4,0.2c0,0.2,0.2,0.2,0.3,0.2c0.7,0.4,1.5,0.9,2.2,1.4c0.1,0.1,0.3,0.2,0.3,0.4
		c-0.1,0.2-0.3,0.1-0.5,0.1c-0.7-0.2-1.5-0.3-2.3-0.2c-0.5,0-0.9,0-1.4,0.2c0.3,0.2,0.5,0.4,0.8,0.5c0.4,0.3,0.8,0.5,1.1,0.8
		c0.1,0,0.2,0.1,0.2,0.2c0,0.1-0.1,0.1-0.2,0.1c-0.3,0-0.5,0.1-0.8,0.1c-0.2,0-0.3,0.1-0.5,0.2c-0.4,0.2-0.4,0.4,0,0.6
		c0.2,0.1,0.4,0.2,0.6,0.3c0.6,0.3,0.9,0.8,1,1.4c0.1,0.5,0,1-0.1,1.5c-0.4,1.4-0.6,2.8-0.6,4.3c0,0.5-0.1,1,0,1.5
		c0,0.3-0.1,0.5-0.2,0.8c-0.4,1-0.9,1.9-1.5,2.8c-2,3.1-4.2,6-6.5,8.8c-1.1,1.3-2.2,2.6-3.3,3.9c-0.6,0.7-1.3,1.4-1.9,2
		c-0.6,0.6-1.1,1.2-1.7,1.8c-1.8,1.7-3.6,3.4-5.6,4.9c-1.3,0.9-2.7,1.7-4.2,2.3c-2.2,0.9-4.3,2-6.3,3.3c-0.6,0.4-1.2,0.8-1.8,1.4
		c-0.1,0.1-0.3,0.2-0.2,0.5c0.1,0.2,0.3,0.2,0.5,0.1c1.3-0.3,2.5-0.6,3.8-0.9c0.2,0,0.3-0.1,0.5-0.1c0.1,0,0.2,0,0.2,0.1
		c0,0.1,0,0.2-0.1,0.2c0,0-0.1,0-0.1,0.1C7.7,50,6.1,50.9,4.4,52c-0.8,0.5-1.5,1-2.2,1.4c-0.9,0.6-1.5,1.3-1.8,2.3
		C0.2,56,0.2,56.4,0,56.7C0.1,56.7,0.1,56.7,0,56.7z"/>
	<path class="st1" d="M0.1,57.5C0.1,57.5,0,57.5,0.1,57.5c0-0.2,0-0.5,0-0.7c0,0,0,0,0.1,0C0.2,57,0.2,57.2,0.1,57.5z"/>
	<path class="st2" d="M0.1,57.5c0-0.2,0-0.5,0-0.7c0.1-1.4,0.8-2.5,1.9-3.3c2.3-1.6,4.8-3.1,7.3-4.3c0.1,0,0.2-0.1,0.3-0.1
		c0.1,0,0.2-0.1,0.1-0.2c0-0.1-0.1-0.1-0.2-0.1c-0.2,0-0.3,0.1-0.5,0.1c-1.3,0.3-2.5,0.6-3.8,0.9c-0.3,0.1-0.5,0-0.6-0.3
		c-0.1-0.2,0.1-0.3,0.2-0.5c0.6-0.5,1.3-1,2-1.5c2.2-1.4,4.6-2.5,7-3.6c1.4-0.6,2.7-1.5,3.9-2.4c1.5-1.2,2.9-2.4,4.3-3.8
		c2.1-2,4.1-4.2,6.1-6.5c1.7-2,3.4-4.1,5-6.2c1.3-1.8,2.6-3.6,3.7-5.5c0.3-0.4,0.5-0.9,0.7-1.4c0.2-0.5,0.2-1,0.2-1.5
		c0-1.9,0.1-3.7,0.7-5.5c0.2-0.5,0.1-1.1,0-1.6c-0.1-0.5-0.5-0.9-0.9-1.1c-0.2-0.1-0.4-0.2-0.6-0.3c-0.1-0.1-0.3-0.2-0.2-0.4
		c0-0.2,0.2-0.3,0.3-0.3c0.4-0.2,0.8-0.2,1.2-0.3c0.1,0,0.2,0,0.4-0.1c-0.8-0.5-1.5-1.1-2.3-1.6c0.5-0.1,1-0.2,1.5-0.2
		c0.8,0,1.7,0,2.5,0.2c0,0,0.1,0,0.1,0c0.1,0,0.2,0,0.2,0c0-0.1,0-0.1-0.1-0.2c-0.2-0.2-0.4-0.3-0.6-0.5c-0.6-0.4-1.2-0.8-1.9-1.2
		C38.1,3.7,38,3.7,38,3.5c0-0.1,0.2-0.2,0.3-0.2c0.5-0.1,1,0,1.5,0.1c1.3,0.3,2.3,1,3.3,1.8C44,6,44.8,6.8,45.6,7.6
		c0.6,0.6,1.2,1.2,2,1.6c0.3,0.2,0.6,0.3,1,0.2c0.6-0.1,1.3,0.1,1.8,0.4c0.9,0.4,1.6,0.9,2.2,1.6c0.2,0.8,0.3,1.6-0.2,2.3
		c-0.3,0.5-0.9,0.8-1.7,0.6c-0.9-0.1-1.7-0.4-2.6-0.8c-0.7-0.3-1.4-0.2-2,0.3c-0.4,0.4-0.9,0.6-1.5,0.6c-0.3,0-0.6,0.1-0.9,0.3
		c-0.3,0.2-0.4,0.5-0.2,0.8c0.2,0.4,0.6,0.7,0.9,0.9c0.9,0.7,1.9,1.2,2.9,1.8c0.6,0.3,1.3,0.6,2,0.7c0.4,0.1,0.7,0.2,1,0.4
		c0.6,0.3,0.9,0.8,0.9,1.5c0,0.9,0.6,1.4,1.4,1.4c0.3,0,0.6,0,0.9,0c0.4,1.1,0.5,2.3,0.6,3.5c0.1,0.8,0.1,1.7,0.1,2.5
		c-0.1,4.2-1.4,8.1-4.2,11.3c-1.7,2-3.7,3.5-5.9,4.7c-1.5,0.8-3.1,1.5-4.8,2.1c-0.1,0.1-0.2,0.1-0.3,0.2c-0.4,0.1-0.9,0.3-1.3,0.4
		c-1.2,0.4-2.4,0.6-3.6,0.9c-0.2,0-0.4,0.1-0.6,0.1c-0.5,0.1-0.9,0.1-1.4,0.2c-0.1,0-0.2,0-0.3,0c-1.6,0.2-3.2,0.4-4.7,0.5
		C26.1,48.9,25,49,23.9,49c-1.3,0-2.7,0.1-4,0.1c-0.2,0-0.3,0-0.5,0c-0.4,0-0.7,0-1,0.3c-2.4,1.6-4.7,3.4-7,5.3
		C10,55.8,8.7,57,7.4,58.3c-1.1,1-2.1,2.1-3.3,3.1c-0.6,0.5-1.1,1-1.8,1.2c-0.7,0.3-1.2,0.1-1.5-0.6c-0.3-0.7-0.4-1.4-0.5-2.2
		C0.3,59,0.2,58.2,0.1,57.5z"/>
	<path class="st3" d="M53.7,22.5c-0.6,0.1-1.1,0.1-1.6-0.2c-0.4-0.2-0.7-0.6-0.7-1.1c0-1-0.6-1.6-1.4-1.9c-0.6-0.2-1.2-0.3-1.7-0.5
		c-1.5-0.8-3-1.5-4.2-2.7c-0.1-0.1-0.2-0.3-0.3-0.4c-0.2-0.4-0.1-0.7,0.3-0.9c0.4-0.2,0.9-0.3,1.4-0.3c0.2,0,0.3,0,0.4-0.2
		c0.2-0.2,0.4-0.3,0.7-0.5c0.5-0.4,1.1-0.4,1.7-0.2c0.8,0.3,1.7,0.6,2.6,0.8c1.1,0.2,1.9-0.4,1.9-1.5c0-0.5,0-0.9-0.1-1.4
		c0.8,0.8,1.3,1.7,1.7,2.7c0,0.1,0,0.1,0.1,0.2c-0.1,0.3-0.4,0.4-0.6,0.6c-0.4,0.4-0.8,0.7-1,1.2c-0.2,0.5-0.1,0.9,0.3,1.2
		c0.4,0.3,0.7,0.4,1.2,0.5c0.3,0.1,0.5,0.1,0.8,0.3c0.3,0.2,0.5,0.5,0.4,0.9c0,0.4-0.1,0.7-0.4,1c-0.1,0.2-0.2,0.3-0.4,0.4
		C53.9,20.9,53.5,21.6,53.7,22.5z"/>
	<path class="st4" d="M41.2,50.6c1.7,0,3.4,0,5,0c0.2,0,0.3,0,0.3,0.3c0,0.3,0,0.6,0,0.9c0,0.2-0.1,0.3-0.2,0.2c0,0-0.1,0-0.1,0
		c-5.9,0-11.7,0-17.6,0c-0.2,0-0.3,0-0.3-0.3c0-0.3,0-0.6,0-1c0-0.1,0-0.2,0.2-0.2c0.4,0,0.7,0,1.1,0c0.2,0,0.4,0,0.5,0
		c0.9,0,1.7,0,2.6,0c0.1,0,0.2,0,0.3,0c0.2-0.1,0.4,0,0.6,0c0.4,0,0.8,0,1.2,0c1.3,0,2.6,0,3.8,0c0.3,0,0.6,0,0.8,0c0.5,0,1,0,1.5,0
		C41,50.5,41.1,50.6,41.2,50.6z"/>
	<path class="st5" d="M55.1,20.1c0.1-0.3,0.3-0.6,0.3-0.9c0.1-0.6-0.1-0.9-0.7-1.1c-0.3-0.1-0.6-0.2-1-0.3c-0.1,0-0.1,0-0.2-0.1
		c-1.2-0.5-1.4-1.3-0.5-2.2c0.4-0.4,0.8-0.8,1.3-1.2c0,0.2,0.2,0.2,0.3,0.3c1.4,0.5,2.7,1.1,4.1,1.6c0.1,0,0.2,0.1,0.2,0.1
		c-0.2,0.3-0.4,0.5-0.7,0.7c-1,0.9-2,1.9-3,2.8C55.2,20,55.1,20.1,55.1,20.1z"/>
	<path class="st6" d="M41.2,50.6c-0.6,0-1.2,0-1.8,0c-0.1-0.1-0.1-0.1-0.2-0.2c-0.4-1-0.8-2-1.2-3c0-0.1-0.1-0.2-0.1-0.4
		c0.5-0.2,1.1-0.3,1.6-0.5C40.1,47.9,40.6,49.2,41.2,50.6C41.2,50.6,41.2,50.6,41.2,50.6z"/>
	<path class="st6" d="M34.7,50.6c-0.1,0.1-0.2,0.1-0.3,0.1c-0.5,0-1,0.1-1.4,0c-0.3-0.8-0.6-1.5-0.9-2.3c0.5-0.1,1-0.2,1.5-0.3
		c0.1,0,0.1,0,0.2,0c0.1,0,0.1,0.1,0.2,0.2c0.3,0.7,0.6,1.4,0.8,2C34.7,50.4,34.8,50.5,34.7,50.6z"/>
	<path class="st7" d="M42.2,54.5c-0.1,0.1-0.2,0.1-0.3,0.1c0,0,0-0.1,0-0.1C42,54.5,42.1,54.5,42.2,54.5z"/>
	<path class="st8" d="M30,50.6c-0.2,0.1-0.4,0.1-0.5,0C29.7,50.6,29.9,50.6,30,50.6z"/>
	<path class="st9" d="M48.2,30.7c0,2.2-0.8,4.2-2.2,5.9c-1.3,1.6-2.9,2.8-4.7,3.7c-2.7,1.4-5.5,2.3-8.4,2.9
		c-1.8,0.4-3.7,0.7-5.5,0.9c-1.5,0.2-2.7-1.2-2.3-2.6c0.4-1.5,1.1-2.8,2-3.9c1.3-1.7,2.9-3.1,4.6-4.3c1.8-1.3,3.7-2.3,5.7-3.3
		c0.1,0,0.2-0.1,0.3-0.1c0.2,0,0.3,0,0.4,0.1c0.1,0.2,0,0.3-0.1,0.4c-0.4,0.3-0.7,0.6-1.1,0.9c-1.5,1.2-2.9,2.5-4.1,3.9
		c-0.7,0.7-1.3,1.5-1.7,2.4c-0.4,0.9,0,1.5,0.9,1.8c0.3,0.1,0.6,0.1,1,0.1c2.6,0.1,5-0.8,7.2-2.2c1.6-1,2.9-2.2,4.2-3.6
		c1.2-1.3,2.3-2.7,3.2-4.2c0.1-0.2,0.2-0.3,0.4-0.3c0.2,0.1,0.3,0.3,0.3,0.5C48.1,30,48.2,30.4,48.2,30.7z"/>
	<path class="st0" d="M34.7,50.6c-0.3-0.8-0.7-1.7-1-2.5c0.4-0.2,0.9-0.2,1.3-0.3c1-0.2,2-0.5,3-0.7c0.5,1.2,1,2.4,1.5,3.6
		c-1.5,0-3,0-4.5,0C34.8,50.6,34.8,50.6,34.7,50.6z"/>
	<path class="st10" d="M48.3,16.4c0-0.5,0.3-0.8,0.8-0.8c0.4,0,0.8,0.4,0.8,0.8c0,0.5-0.4,0.8-0.8,0.8
		C48.7,17.2,48.3,16.8,48.3,16.4z"/>
</g>
<rect x="28.2" y="50.5" class="st11" width="215.3" height="2"/>
<text transform="matrix(1 0 0 1 61.9198 44.0689)" class="st12 st13 st14">Cardinal Pride</text>
<text transform="matrix(1 0 0 1 216.018 44.0689)" class="st12 st15 st16">LLC.</text>
</svg>
