<?xml version="1.0" encoding="utf-8"?>
<!-- Generator: Adobe Illustrator 21.1.0, SVG Export Plug-In . SVG Version: 6.00 Build 0)  -->
<svg version="1.1" id="Layer_1" xmlns="http://www.w3.org/2000/svg" xmlns:xlink="http://www.w3.org/1999/xlink" x="0px" y="0px"
	 viewBox="0 0 252 252" style="enable-background:new 0 0 252 252;" xml:space="preserve">
<style type="text/css">
	.st0{fill:#FFFFFF;stroke:#A6001D;stroke-width:2;stroke-miterlimit:10;}
	.st1{fill:#FEFEFE;}
	.st2{fill:#EEEEEE;}
	.st3{fill:#F6F6F6;}
	.st4{fill:#383838;}
	.st5{fill:#F4F4F4;}
	.st6{fill:#FDFDFD;}
	.st7{fill:#FFFFFF;}
	.st8{font-family:'Calibri';}
	.st9{font-size:302.0055px;}
</style>
<g id="Layer_1_1_">
	<circle class="st0" cx="126.2" cy="126.2" r="123.8"/>
	<g>
		<path class="st1" d="M152.1,65.6c-5.3-0.7-11.5-1.7-17.4-3.8c-2.7-0.9-4.4-1.1-6.3,1.9c-3.7,5.7-10.6,5.7-14.3,0
			c-2-3-3.7-3.1-6.6-2.1c-6.1,2.1-12.4,3.6-18.9,4c-5.6,0.4-9.7-3.1-9.8-7.8c-0.1-4.9,4.4-8.5,10.1-8c6.8,0.6,13.5,2.2,19.9,4.5
			c2.6,0.9,4.2,0.9,6.4-1.3c4-4.1,8.3-4.1,12.3,0.1c1.9,2,3.2,1.8,5.4,1.1c6.4-2.3,13.1-3.8,19.9-4.4c5.6-0.5,9.7,2.9,9.8,7.8
			C162.6,62.4,158.6,65.8,152.1,65.6z"/>
		<path class="st2" d="M70,183.5c0.8-7.4,4.5-11.4,12.1-12.2C79.3,176.8,76.2,181.3,70,183.5z"/>
		<path class="st3" d="M120.3,84.1c0.9-1.2,1.3-2.8,3.1-3.5c0,4.9,0,9.7,0,14.5c-2.5,1.2-3.5,0.2-3.4-2.4
			C120.1,89.9,119.6,87,120.3,84.1z"/>
		<path class="st4" d="M25.9,162.4"/>
		<path class="st4" d="M38.5,164.4"/>
		<path class="st5" d="M120.3,84.1c0.1,2.6,0.2,5.2,0.2,7.8c-0.1,2.1,0.7,3.4,3,3.2c-1.5,1.5-3.6,2-3.8-0.5
			C119.3,91.2,118.5,87.5,120.3,84.1z"/>
		<path class="st6" d="M114.6,112.4"/>
		<path class="st6" d="M114.6,117.2"/>
	</g>
	<path class="st0" d="M225,199.7"/>
	<text transform="matrix(1.2719 0 0 1 43 231.2373)" class="st7 st8 st9">?</text>
</g>
<g id="Layer_2">
</g>
<g>
	<path class="st0" d="M126.3,41.4c15.3,0,30.6,0,45.9,0c5.3,0,6.1,0.8,6.1,6c0,24.1,0,48.2,0,72.4c0,3,0.4,4.1,3.8,3.9
		c8.3-0.3,16.4-0.1,24.7-0.1c2,0,4.1,0,5,2.2c0.9,2.3-0.4,3.8-2,5.4c-26.6,26.4-53,53-79.5,79.4c-3.4,3.4-4.7,3.4-7.9,0.1
		c-26.6-26.4-53.1-53-79.5-79.4c-1.5-1.5-3.1-3-2.2-5.4c0.9-2.3,3.1-2.4,5.3-2.4c8.3,0,16.4-0.1,24.7,0.1c2.7,0,3.4-0.7,3.4-3.4
		c-0.1-24.1-0.1-48.2,0-72.4c0-5.7,0.8-6.5,6.5-6.5C95.6,41.4,110.9,41.4,126.3,41.4z"/>
	<path class="st0" d="M146,100.7c-4.2,0.7-7.2,0.7-8.9-4.2c-1.9-5.3-8.1-7.3-14.6-5.8c-5.6,1.2-8.4,4.2-8.8,9.5
		c-0.4,4.6,1.5,7.7,6.1,9.9c4.7,2.2,9.9,2.8,14.8,4.3c13.1,4.2,18,16.3,10.8,27.1c-2.8,4.3-7,6.8-11.9,7.9c-3,0.7-4.2,1.6-3.7,4.6
		c0.5,2.8-0.9,3.5-3.4,3.3c-2.3-0.1-4.6,0.4-3.9-3.3c0.5-3-0.7-4.1-3.8-4.9c-8.5-2.2-13.1-8.4-14.6-16.8c-0.1-0.9-1.1-3,1.1-2.7
		c2.2,0.3,5.3-2,6.2,1.5c3,11,13.5,15.9,23.7,10.6c6.6-3.4,7.3-13.4,1.2-17.9c-3.4-2.4-7.3-3.1-11.2-4.2c-2.2-0.7-4.3-1.1-6.4-1.6
		c-9.1-2.7-13-7.2-13.1-14.9c-0.3-8.5,4.6-15.9,12.9-18.3c3.4-0.9,4.6-2.4,4.1-5.7c-0.5-3.1,0.7-3.8,3.8-3.9
		c3.4-0.1,4.1,1.2,3.7,4.1c-0.5,3.4,0.5,5,4.1,6.1C140.5,86.7,144.3,92.1,146,100.7z"/>
</g>
</svg>
