<?xml version="1.0" encoding="utf-8"?>
<!-- Generator: Adobe Illustrator 21.1.0, SVG Export Plug-In . SVG Version: 6.00 Build 0)  -->
<svg version="1.1" id="Layer_1" xmlns="http://www.w3.org/2000/svg" xmlns:xlink="http://www.w3.org/1999/xlink" x="0px" y="0px"
	 viewBox="0 0 252 252" style="enable-background:new 0 0 252 252;" xml:space="preserve">
<style type="text/css">
	.st0{fill:#FFFFFF;stroke:#A6001D;stroke-width:2;stroke-miterlimit:10;}
</style>
<circle class="st0" cx="126.2" cy="126.2" r="123.8"/>
<g>
	<path class="st0" d="M-436.3,119.3c0.5,0.6,0.5,1.2,0,1.8C-436.3,120.5-436.3,119.9-436.3,119.3z"/>
	<path class="st0" d="M-436,114.1c0.1,0.6,0.1,1.1-0.3,1.5c0-0.5,0-1,0-1.5C-436.2,114.2-436.1,114.2-436,114.1z"/>
	<path class="st0" d="M-436.3,122.6c0.4,0.2,0.3,0.6,0.3,0.9c-0.1,0.1-0.2,0.1-0.3,0C-436.3,123.2-436.3,122.9-436.3,122.6z"/>
	<path class="st0" d="M-436.3,123.5c0.1,0,0.2,0,0.3,0c0,0.2,0.1,0.5-0.3,0.6C-436.3,123.9-436.3,123.7-436.3,123.5z"/>
	<path class="st0" d="M45.8,180.3c15.3-5.5,29.8-11.9,38.2-27.1c3.2,0,3.1,2.9,4.2,4.8c2.8,10.7,6.4,21.3,8.9,32.1
		c0.7,13.3,7.3,24.8,11.5,37.1c1.9-10.3,4.8-20.1,7.1-30.1c1-4.6,1.7-9.2-4.4-11c-0.7-0.2-1.3-0.5-1.9-1c-0.6-4.6,3.1-7.1,5.4-10.2
		c2.5-3.4,2.2-5.8-0.3-9.3c-6-8.2-14-14.2-20.9-21.3c-0.8-1-1.3-2.3-2.1-3.4c1.7-12.4-1.2-23.2-11.3-31.5c-1.8-1.5-2.6-3.7-2.8-6
		c-1.7-18.1-6.6-35.7-4.6-54C74.1,37.5,86.7,21,98.4,18c4.4-1.1,8.5-3,12.8-4.2c16.5-4.7,31.7-2.9,45.5,8.8c9.4,8,13.4,17.1,13,29.4
		c-0.3,9.5-0.5,18.9,2.4,28.7c2.6,8.5,1.8,19.8-4.2,27.5c-8.5,11-6.2,20.7,0.3,30.9c-9.1,7.5-16.8,16.4-25.8,24
		c-6.3,5.3-6.4,5.2-1.6,12.3c0.7,1.1,1.2,2.2,1.2,3.5c-0.1,0.7-0.3,1.4-0.6,2.1c-7.2,8.7-7.1,8.7-1.7,19.3
		c6.2,12.1,11.5,24.6,17.5,38.7c3.4-22.8,8.8-43.7,8.3-65.4c3.2-10.5,2.9-21.4,4.3-32.1c11.7,13.3,27.9,18.1,43.9,23.2"/>
	<path class="st0" d="M-354,152.7c0-0.3,0-0.6,0-1.1c0.4,0.5,0.6,0.8,0.5,1.3C-353.6,152.9-353.8,152.8-354,152.7z"/>
</g>
</svg>
