<?xml version="1.0" encoding="utf-8"?>
<!-- Generator: Adobe Illustrator 21.1.0, SVG Export Plug-In . SVG Version: 6.00 Build 0)  -->
<svg version="1.1" id="Layer_1" xmlns="http://www.w3.org/2000/svg" xmlns:xlink="http://www.w3.org/1999/xlink" x="0px" y="0px"
	 viewBox="0 0 171 66" style="enable-background:new 0 0 171 66;" xml:space="preserve">
<style type="text/css">
	.st0{fill:#CAB686;stroke:#CAB686;stroke-width:0.25;stroke-miterlimit:10;}
</style>
<g>
	<path class="st0" d="M11.2,36.8c-3-0.1-6.1,0-9.1-0.3c-1.1-0.1-1.3-0.3-1.1-1.4c0.3-1.1,0.4-2.3,0.5-3.5c0.1-1.4,1.2-2.2,2.6-1.9
		c1.4,0.3,2.7-0.5,3-1.9c0.4-1.9,4-5,6.2-4.8c0.4,0,0.8,0,1.2,0c0.3-0.2,0.6-0.2,1,0c0.9,0,1.7,0.2,2.6-0.7c0.6-0.6,1.6-1.3,2.9-1.2
		c0.5,0.1,1.3-0.1,1.5-0.5c1-1.7,2.7-1.7,4.3-1.9c1-0.2,1.2-0.8,1.1-1.4c-0.1-2.4-0.1-2.4,2-1.9c0.5,0.1,1.2-0.1,1.1-0.6
		c-0.2-1.3,0.9-1.3,1.5-1.7c0.2-0.2,0.6-0.2,0.8-0.3c0.5-0.3,0.9-1.1,1.5-0.6c0.4,0.4,0.6,1.1,0.5,1.8c-0.2,0.9,0.1,1.2,1,0.6
		c0.7-0.5,1.6-0.7,2-1.7c0.6-1.7,4-2.5,5.4-1.3c0.5,0.5,1.9-0.1,2.3-1c0.8-1.9,1.9-3.5,3.8-4.5c1.2-0.6,1.2-1.6,1.3-2.7
		c0.1-1.8,0.6-2.3,2.3-2.3c3.5,0,7.1-0.2,10.6,0c6.8,0.4,13.6-0.3,20.3,0.4c6.8,0.6,13.5,0.4,20.2,0.5c6.9,0.1,13.8,0.5,20.7-0.2
		c6.4-0.6,12.7,0,19-0.5c4.9-0.4,9.7-0.1,14.6-0.2c0.5,0,0.9,0.1,1.4-0.2c0.5-0.3,0.9-0.1,1,0.3c0.6,3.3,2.5,6.1,2.5,9.5
		c0,0.4,0.1,0.8-0.1,1.1c-0.3,0.4,0,1.2-0.8,1.3c-0.8,0.1-0.8-0.6-1.1-1.1c-0.8-1.4-2.6-1.7-4.1-0.8c-0.4,0.2-0.9,0.2-1.3,0.3
		c-0.2,0-0.7,0-0.7,0.1c-0.5,2.3-2.5,1-3.7,1.4c-0.8,0.3-1.4,0.7-2,1.1c-0.4,0.3-0.7,0.7-1.2,0.5c-1.3-0.7-2.2-0.3-2.6,1.2
		c0.9-0.1,2-0.5,2.9-0.7c2.4-0.6,4.9,0.1,7.3-0.8c1.4-0.5,2.7,0.5,3,2c0.1,0,0.1-0.1,0.2-0.1c0.5-0.5-0.1-2.1,1.5-1.6
		c0.9,0.2,1.9-0.3,2.6,0.6c0.4,0.6,0.9,0,0.9-0.1c-0.4-1,1-0.8,1-1.5c0-0.3,0.6-0.1,0.7,0.1c0.2,0.5,0.7,0.8,0.8,1.3
		c1.1,2.7,2.7,5.2,3.3,8.1c0.3,1.4-0.3,2.8-0.3,4.3c0,1.2-0.3,2.3-0.2,3.5c0,0.9-0.3,1.3-1.2,0.9c-0.4-0.2-0.6-0.1-1,0
		c-2.6,1.1-5.2,2.4-7.6,3.9c-0.7,0.4-0.9,1.3-1.8,1.5c-0.3,0-0.5,0.6-0.7,0.2c-0.2-0.3-0.6-0.6-0.3-1.1c0.1-0.2,0.2-0.5,0.4-0.6
		c2.9-1.7,5.5-4,8.9-4.8c0.7-0.2,1.6-0.7,1.7-1.8c0.1-1.4,0.2-2.9,0.3-4.3c0.4-0.5,0.4-1.1,0-1.6c0-1.4-0.5-2.6-0.9-3.8
		c-0.5-1.6-1.7-0.3-2.4-0.7c-0.1,0.2-0.2,0.4-0.2,0.5c0.4,1-0.8,2.1,0,3.1c-0.6,0.4-0.3,1.5-1.2,1.6c-0.6,0-1,1.5-1.8,0.2
		c-0.2-0.4-2.2,1-2.2,1.8c0.1,2.2-1.9,2.8-3.1,3.9c-0.8,0.7-1.7-0.2-2.6-0.5c-0.4-0.1-0.8-0.4-1.3,0.1c-0.3,0.4-1.1,0.4-1.5-0.1
		c-0.6-0.7-1.8,0.2-2.3-0.9c-0.4,0.9-1.1,0.6-1.8,0.6c-0.1-0.1-0.2-0.1-0.3,0c-0.1,0.1,0,0.2,0,0.2c0.7,0.7,1.6,0.3,2.4,0.4
		c0.5,0.1,1.3-0.2,1.3,0.6c0,0.9,0.6,2.2-0.6,2.7c-0.6,0.3-0.6,0.5-0.6,1c-0.2,1.9-1.7,2.6-3.1,3.4c-0.5,0.3-0.9,0.7-1.4,1
		c1.7,0.1,3.1-0.8,4.4-1.6c0.3-0.2,0.8-0.2,1-0.5c0.2-0.4,0-1.3,0.7-1c0.3,0.1,0.4,1,0.6,1.6c0.1,0.4-0.4,1.1,0.6,1.1
		c0.9,0,0.6-0.6,0.7-1.1c0.1-0.8,0.5-0.7,1-0.4c0.3,0.2,0.5,0.5,0.9,0.7c1,0.4,0.4,1-0.1,1.3c-0.7,0.5-1.3,0.9-0.1,1.5
		c0.6,0.3,0.2,0.9,0.1,1c-1.6,1.5-2.8,3.3-4,5.1c-0.3,0.4-0.6,0.7-1,1.1c-0.3,0.3-0.5,0.3-0.7-0.1c-0.4-1.5-1.8-1.4-2.9-1.6
		c-2.1-0.3-4.1,0.2-6.1,0.6c-0.4,0.1-1.2,0.9-1.3-0.4c-0.5,0.1-1,0.3-1.2,0.6c-1.3,2.2-3.8,2.8-5.6,4.3c-2.4,2-5,3.6-6,7
		c-0.5,1.7-1.3,3.6-2.3,5.2c-0.5,0.4-0.2,1.1-0.6,1.5c-0.5,0.6-0.8,0.1-1.3-0.1c-0.9-0.4-1.9-0.8-2.8-1.1c-0.7,0.5-1.6,0-2.2,0.5
		c-1.4-0.1-2.7,0.2-4.1,0.6c-1,0.3-1.8,0.1-2.6-1c-0.8-1.2-2.1-2-3-3.2c-0.9-1.1-2.3-1.9-3.2-3.1c-0.6-0.9-1.5-1.6-2.3-2.3
		c-2.6-2.2-4.7-4.9-7.3-7.2c-1.6-1.4-3.2-2.9-4.5-4.6c-0.5-0.6-0.9-0.3-1.4-0.3c-6.1-0.1-12.2-0.2-18.3-0.2c-1.4,0-2-0.4-1.8-1.9
		c0.2-1.9-1.6-2.9-2.3-4.3c-0.2-0.3-1-0.2-1.2,0.2c-0.3,0.6-0.7,0.8-1.2,0.6c-0.6-0.3-0.8-1.1-0.5-1.6c0.6-1.3-0.1-1.2-1-1.2
		c-5.6-0.2-11.1-0.3-16.7-0.7c-2.1-0.2-4.3-0.4-6.3-0.1C37.5,34,36,34,34.6,34.1c-0.6,0-1.2,0-1.3,1c-0.1,1-1.4,0.8-2,0.8
		c-2,0-3.9,0.4-5.7,1.2c-0.6,0.3-1.3,0.4-1.7,0.3c-3.3-0.4-6.7-0.1-10-0.2C13,36.7,12,37.3,11.2,36.8z"/>
</g>
</svg>
