<?xml version="1.0" encoding="utf-8"?>
<!-- Generator: Adobe Illustrator 21.1.0, SVG Export Plug-In . SVG Version: 6.00 Build 0)  -->
<svg version="1.1" xmlns="http://www.w3.org/2000/svg" xmlns:xlink="http://www.w3.org/1999/xlink" x="0px" y="0px"
	 viewBox="0 0 252 252" style="enable-background:new 0 0 252 252;" xml:space="preserve">
<style type="text/css">
	.st0{fill:#FFFFFF;stroke:#A6001D;stroke-width:2;stroke-miterlimit:10;}
	.st1{fill:#FEFEFE;}
	.st2{fill:#EEEEEE;}
	.st3{fill:#F6F6F6;}
	.st4{fill:#383838;}
	.st5{fill:#F4F4F4;}
	.st6{fill:#FDFDFD;}
	.st7{fill:#FFFFFF;stroke:#800017;stroke-width:2;stroke-miterlimit:10;}
</style>
<g id="Layer_1">
	<circle class="st0" cx="126.2" cy="126.2" r="123.8"/>
	<g>
		<path class="st1" d="M152.1,65.6c-5.3-0.7-11.5-1.7-17.4-3.8c-2.7-0.9-4.4-1.1-6.3,1.9c-3.7,5.7-10.6,5.7-14.3,0
			c-2-3-3.7-3.1-6.6-2.1c-6.1,2.1-12.4,3.6-18.9,4c-5.6,0.4-9.7-3.1-9.8-7.8c-0.1-4.9,4.4-8.5,10.1-8c6.8,0.6,13.5,2.2,19.9,4.5
			c2.6,0.9,4.2,0.9,6.4-1.3c4-4.1,8.3-4.1,12.3,0.1c1.9,2,3.2,1.8,5.4,1.1c6.4-2.3,13.1-3.8,19.9-4.4c5.6-0.5,9.7,2.9,9.8,7.8
			C162.6,62.4,158.6,65.8,152.1,65.6z"/>
		<path class="st2" d="M70,183.5c0.8-7.4,4.5-11.4,12.1-12.2C79.3,176.8,76.2,181.3,70,183.5z"/>
		<path class="st3" d="M120.3,84.1c0.9-1.2,1.3-2.8,3.1-3.5c0,4.9,0,9.7,0,14.5c-2.5,1.2-3.5,0.2-3.4-2.4
			C120.1,89.9,119.6,87,120.3,84.1z"/>
		<path class="st4" d="M25.9,162.4"/>
		<path class="st4" d="M38.5,164.4"/>
		<path class="st5" d="M120.3,84.1c0.1,2.6,0.2,5.2,0.2,7.8c-0.1,2.1,0.7,3.4,3,3.2c-1.5,1.5-3.6,2-3.8-0.5
			C119.3,91.2,118.5,87.5,120.3,84.1z"/>
		<path class="st6" d="M114.6,112.4"/>
		<path class="st6" d="M114.6,117.2"/>
	</g>
	<g>
		<path class="st7" d="M200.9,59c0.1,0,0.1,0,0.2,0c1.6,2.5,3.2,5,4.9,7.4c0.4,0.6,0.5,1.2,0.5,1.9c-0.1,3.6,0,7.2,0,10.7
			c0,0.7,0.1,1,0.7,1c1.3-0.1,2.5-0.1,3.8-0.1c0,2.6,0,5.2,0,7.8c-1.2,0-2.4,0.1-3.5-0.1c-0.9-0.1-1,0.3-1,1.3c0,23.8,0,47.7,0,71.5
			c0,0.2,0,0.4,0,0.6c-0.1,0.6,0.1,0.8,0.7,0.8c1.3-0.1,2.6-0.1,3.9-0.1c0,2.6,0,5.2,0,7.8c-1.3,0-2.5,0.1-3.7,0
			c-0.7-0.1-0.8,0.3-0.8,1.1c0.1,6.3,0,12.7,0.1,19c0,0.9-0.2,1.2-0.9,1.4c-3.2,1-6.4,0.9-9.6-0.1c-0.7-0.2-0.9-0.5-0.9-1.3
			c0.1-5.6,0-11.3,0-17c0-1,0.3-2.3-0.2-3c-0.5-0.6-1.5-0.1-2.4-0.2c-0.7-0.1-0.9,0.2-0.9,1.1c0.1,6.4,0.1,12.7,0.1,19.1
			c0,0.8-0.2,1-0.8,1.2c-3.3,1.1-6.5,0.9-9.8,0c-0.7-0.2-0.8-0.5-0.8-1.4c0.1-6.3,0-12.7,0.1-19c0-0.8-0.1-1.2-0.8-1.1
			c-0.9,0.1-1.8,0.1-2.7,0c-0.7-0.1-0.9,0.3-0.9,1.1c0.1,6.3,0,12.6,0.1,18.9c0,0.8-0.2,1.2-0.9,1.4c-3.1,1-6.1,0.8-9.3,0.1
			c-1-0.3-1.3-0.7-1.3-2.1c0.1-6.2,0-12.4,0.1-18.6c0-0.8-0.2-1-0.8-1c-0.7,0.1-1.3,0.1-2,0c-0.7-0.1-0.9,0.2-0.9,1.1
			c0.1,6.5,0,13,0.1,19.5c0,0.7-0.2,1-0.7,1.2c-1,0.2-2,0.6-2.9,0.8c-1.3,0-2.7,0-4,0c-1-0.6-2-0.6-3-0.8c-0.6-0.2-0.7-0.5-0.7-1.2
			c0-6.5,0-12.9,0-19.3c0-0.8-0.1-1.2-0.9-1.2c-0.8,0.1-1.6,0.1-2.4,0c-0.7-0.1-1,0.2-0.9,1.2c0.1,6.5,0.1,12.9,0.1,19.3
			c0,0.8-0.2,1.2-0.8,1.3c-0.9,0.2-1.8,0.5-2.7,0.8c-1.5,0-3,0-4.5,0c-0.8-0.6-1.6-0.5-2.5-0.8c-0.7-0.2-0.9-0.6-0.9-1.4
			c0.1-6.5,0-12.9,0.1-19.3c0-0.8-0.2-1-0.8-1c-0.9,0.1-1.8,0.1-2.7,0c-0.9-0.1-1.2,0.1-1.2,1.4c0.1,6.3,0.1,12.6,0.1,18.9
			c0,0.5,0.1,1-0.5,1.2c-3.3,1-6.6,1.2-9.9,0.1c-0.7-0.2-0.9-0.6-0.9-1.5c0.1-6.4,0.1-12.7,0.1-19.1c0-0.7-0.1-1-0.7-1
			c-0.9,0.1-1.9,0.1-2.8,0c-0.7-0.1-0.9,0.2-0.9,1.1c0.1,6.4,0,12.7,0,19.1c0,0.5,0.1,0.9-0.5,1.1c-3.4,1-6.7,1.2-10.1,0.1
			c-0.6-0.2-0.8-0.5-0.8-1.2c0.1-5.7,0.1-11.4,0.1-17.1c0-1,0.4-2.4-0.2-3c-0.5-0.5-1.5-0.1-2.4-0.2c-0.7-0.1-0.8,0.3-0.8,1.1
			c0.1,6.4,0,12.7,0.1,19.1c0,0.8-0.2,1-0.7,1.2c-3.3,1.1-6.7,0.9-10-0.1c-0.6-0.2-0.5-0.6-0.5-1.2c0-5.6,0-11.1,0-16.7
			c0-1.1,0.4-2.6-0.2-3.2c-0.5-0.6-1.6-0.1-2.5-0.2c-0.7-0.1-0.9,0.1-0.9,1.1c0.1,6.5,0.1,12.9,0.1,19.3c0,0.8-0.2,1.2-0.8,1.4
			c-0.9,0.2-1.8,0.5-2.7,0.8c-1.4,0-2.8,0-4.2,0c-0.9-0.6-1.9-0.5-2.8-0.8c-0.7-0.2-0.9-0.6-0.9-1.4c0.1-6.5,0-12.9,0.1-19.3
			c0-0.8-0.2-1-0.8-1c-0.9,0.1-1.8,0.1-2.6,0c-0.8-0.1-1.1,0.2-1.1,1.3c0.1,6.3,0.1,12.6,0.1,18.9c0,0.8-0.2,1-0.8,1.2
			c-3.3,1.1-6.5,1-9.8,0c-0.6-0.2-0.9-0.5-0.9-1.3c0.1-6.4,0-12.7,0.1-19.1c0-0.8-0.2-1-0.8-1c-1,0.1-2.1,0.1-3.2,0
			c-0.7-0.1-0.9,0.2-0.9,1.1c0.1,6.3,0,12.6,0.1,18.9c0,1-0.3,1.3-0.9,1.5c-3.1,1-6.3,0.8-9.4,0c-0.8-0.2-1-0.5-1-1.5
			c0.1-6.3,0-12.7,0.1-19c0-0.8-0.1-1-0.7-1c-1.3,0.1-2.5,0-3.8,0c0-2.6,0-5.2,0-7.8c1.2,0,2.4,0,3.5,0.1c0.8,0.1,1-0.2,1-1.2
			c0-23.9,0-47.7,0-71.7c0-0.2,0-0.4,0-0.6c0.1-0.6-0.1-0.7-0.5-0.7c-1.3,0.1-2.6,0-4,0.1c0-2.6,0-5.2,0-7.8c1.3,0,2.5,0,3.8,0.1
			c0.6,0.1,0.8-0.2,0.8-0.9c-0.1-3.6,0-7.3,0-10.9c0-0.6,0.1-1,0.4-1.5c1.6-2.2,3.2-4.5,4.7-6.7c0.2-0.3,0.5-0.4,0.4-0.9
			c0.1,0,0.2,0,0.4,0c-0.1,0.5,0.3,0.6,0.4,0.9c1.5,2.2,2.9,4.4,4.4,6.6c0.3,0.6,0.5,1,0.5,1.7c0,3.6,0,7.3-0.1,10.9
			c0,0.9,0.2,1.1,0.9,1c1-0.1,2.1-0.1,3.2,0c0.7,0.1,0.9-0.1,0.9-1c-0.1-3.6,0-7.2-0.1-10.8c0-0.8,0.2-1.4,0.6-2
			c1.8-2.5,3.5-5,5.2-7.4c0.1,0,0.1,0,0.2,0c0,0.4,0.3,0.6,0.4,0.8c1.3,2,2.6,4.1,4,6c0.7,1,1,2,1,3.4c-0.1,3.4-0.1,6.7-0.1,10.1
			c0,0.7,0.1,1,0.7,0.9c1-0.1,2-0.1,3,0c0.6,0.1,0.8-0.1,0.8-1c-0.1-3.6,0-7.2,0-10.7c0-0.6,0.1-1,0.4-1.4c1.3-2.5,3-4.9,4.6-7.3
			c0.3-0.6,0.5-0.6,0.9,0c1.5,2.4,3.1,4.7,4.7,7.1c0.3,0.5,0.4,0.9,0.4,1.4c0,2.8-0.1,5.6-0.1,8.3c0,1-0.3,2.5,0.1,3.1
			c0.5,0.8,1.6,0.1,2.5,0.3c0.7,0.1,1-0.2,1-1.2c-0.1-3.6,0-7.2-0.1-10.7c0-0.7,0.1-1.2,0.5-1.7c1.3-1.7,2.5-3.5,3.7-5.3
			c0.5-0.8,1.1-1.4,1.4-2.3c0.1,0,0.1,0,0.2,0c1.6,2.5,3.2,5,4.9,7.4c0.4,0.6,0.6,1.2,0.5,1.9c-0.1,3.6,0,7.2,0,10.8
			c0,0.7,0.2,1,0.7,0.9c0.7-0.1,1.3-0.1,1.9,0c0.7,0.1,0.7-0.3,0.7-1c-0.1-3,0.1-6-0.1-9c-0.1-1.9,0.3-3.4,1.4-4.9
			c1.4-2,2.9-4,4.1-6.2c0.1,0,0.1,0,0.2,0c1.8,2.5,3.5,5.1,5.3,7.6c0.3,0.5,0.5,1,0.5,1.6c0,3.6,0,7.2,0,10.8c0,0.7,0.1,1,0.7,1
			c1-0.1,1.9-0.1,2.9,0c0.7,0.1,0.8-0.3,0.8-1c-0.1-3.6-0.1-7.2-0.1-10.7c0-0.6,0.1-1.1,0.4-1.5c1.6-2.3,3.1-4.7,4.7-6.9
			c0.2-0.2,0.3-0.6,0.6-0.6c1.7,2.5,3.3,5,5.1,7.4c0.4,0.6,0.5,1.2,0.5,1.9c0,3.6,0,7.4,0,11c-0.1,0.3-0.1,0.6,0.3,0.6
			c1.3,0,2.6,0.1,3.9,0.1c0.4,0,0.4-0.3,0.4-0.7c0-3.8-0.1-7.6-0.1-11.3c0.1-0.2,0.1-0.5,0.2-0.6c1.9-2.7,3.8-5.4,5.7-8.2
			c1.7,2.5,3.3,5.1,5,7.6c0.3,0.6,0.5,1,0.5,1.7c0,3.8,0,7.6,0,11.3c-0.1,0.2,0,0.3,0.2,0.2c0.3,0,0.6,0,0.9,0
			c0.8,0.1,1.6,0.1,2.4,0.1c0.5,0.1,0.6-0.3,0.5-0.8c0-3.6,0.1-7.4,0.1-11c0-0.6,0.1-1,0.4-1.4c1.6-2.3,3.3-4.7,4.9-7.1
			c0.4-0.6,0.5-0.6,0.9,0c1.5,2.4,3.1,4.8,4.8,7.2c0.3,0.4,0.3,0.8,0.3,1.4c0,3.3,0,6.6,0,9.9c0,2.3,0,2.3,1.8,2.1
			c0.4,0,0.9,0.1,1.4,0.1c0.3,0,0.5-0.1,0.4-0.6c0-3.9,0.1-7.8,0-11.7c0-0.6,0.2-1.1,0.5-1.6c1.8-2.5,3.6-5.1,5.3-7.6
			c0.1,0,0.1,0,0.2,0c-0.1,0.5,0.3,0.6,0.4,0.9c1.5,2.2,2.9,4.5,4.4,6.6c0.4,0.6,0.5,1.1,0.5,1.9c0,3.7,0,7.4-0.1,11.1
			c0,0.9,0.2,1.1,0.9,1c0.9-0.1,1.9-0.1,2.8-0.1c0.6,0,0.8-0.2,0.8-1c-0.1-3.8,0-7.6,0-11.3c0-0.6,0.1-1,0.4-1.5
			c1.6-2.2,3.2-4.5,4.7-6.7c0.2-0.3,0.5-0.5,0.5-0.9c0.1,0,0.2,0,0.4,0c-0.1,0.5,0.2,0.6,0.4,0.9c1.5,2.3,3,4.5,4.5,6.7
			c0.3,0.5,0.4,0.9,0.4,1.5c-0.1,3-0.1,5.9-0.1,8.9c0,1-0.4,2.5,0.2,3c0.5,0.6,1.6,0.1,2.5,0.1c0.7,0.1,0.8-0.3,0.8-1
			c-0.1-3.5,0-7-0.1-10.5c0-1,0.2-1.8,0.8-2.5C197.6,63.8,199.4,61.5,200.9,59z M52.7,125c0,1.7,0,3.5,0,5.2c0,10.2,0,20.5,0,30.7
			c0,0.9,0.2,1.2,0.9,1.2c1-0.1,1.9-0.1,2.9,0.1c0.9,0.1,1.1-0.2,1.1-1.3c-0.1-22.5,0-45,0-67.5c0-1.7,0-3.2,0-4.9
			c0-0.6-0.1-0.8-0.6-0.8c-1,0.1-2.1,0.1-3.1,0c-0.9-0.1-1.2,0.2-1.2,1.4C52.7,101,52.7,113,52.7,125z M73.2,125c0-12,0-24.1,0-36.1
			c0-0.2,0-0.5,0-0.7c0.1-0.5-0.2-0.6-0.5-0.6c-1.1,0-2.2,0.1-3.3,0c-0.6,0-0.7,0.3-0.7,1c0,13-0.1,25.9-0.1,38.9
			c0,11.2,0.1,22.5,0.1,33.7c0,0.9,0.2,1.2,0.9,1.2c0.9-0.1,1.8-0.1,2.7,0c0.8,0.1,0.9-0.1,0.9-1.2C73.2,149.2,73.2,137.1,73.2,125z
			 M134.4,124.7c0-3.7,0-7.4,0-11.1c0-8.3,0-16.6,0-24.8c0-0.7,0.1-1.2-0.7-1.1c-1,0.1-1.9,0.1-2.9,0c-0.8-0.1-1,0.3-1,1.3
			c0,19.6,0,39.2,0,58.9c0,4.3,0,8.7,0,13.1c0,0.7,0.1,1,0.7,0.9c1-0.1,2-0.1,3,0c0.8,0.1,1-0.3,1-1.2
			C134.3,148.6,134.4,136.6,134.4,124.7z M114.1,124.7c0,4,0,8,0,12c0,8.1,0,16.2,0,24.3c0,0.8,0.2,1.1,0.8,1
			c0.9-0.1,1.9-0.1,2.8-0.1c0.7,0.1,0.9-0.2,0.9-1.1c0-11.9,0.1-23.8,0.1-35.8c0-12.1-0.1-24.2-0.1-36.3c0-0.9-0.2-1.2-0.9-1.1
			c-0.8,0.1-1.5,0-2.2,0c-1.3,0-1.3,0-1.3,1.5C114.1,101,114.1,112.8,114.1,124.7z M180.5,124.8c0-12,0-23.9,0-35.8
			c0-0.2,0-0.5,0-0.7c0.1-0.5-0.2-0.6-0.5-0.6c-0.9,0-1.9,0.1-2.8,0c-0.9-0.1-1.1,0.2-1.1,1.3c0.1,23.9,0,47.8,0,71.7
			c0,0.2,0,0.5,0,0.7c-0.1,0.5,0.1,0.6,0.5,0.6c1,0,1.9-0.1,2.9,0c0.8,0.1,1-0.2,1-1.2C180.5,148.8,180.5,136.9,180.5,124.8z
			 M149.8,124.8c0-3.9,0-7.9,0-11.8c0-8.1,0-16.2,0-24.3c0-0.7-0.1-1-0.7-1c-0.8,0.1-1.6,0.1-2.4,0c-0.9-0.1-1.1,0.2-1.1,1.3
			c-0.1,23.9-0.2,47.8-0.1,71.7c0,0.1,0,0.3,0,0.5c-0.1,0.6,0.2,0.8,0.6,0.8c0.8,0,1.7-0.1,2.5,0c0.8,0.1,1-0.2,1-1.2
			C149.7,148.7,149.8,136.7,149.8,124.8z M84.5,125C84.5,125,84.5,125,84.5,125c-0.1,11.3-0.1,22.8-0.1,34.1c0,1-0.4,2.4,0.2,3
			s1.6,0.1,2.5,0.1s1-0.3,1-1.3c0-23.3,0-46.6-0.1-69.9c0-1.1,0.4-2.6-0.2-3.2c-0.5-0.6-1.7-0.1-2.5-0.2c-0.7-0.1-0.9,0.2-0.9,1.1
			C84.5,100.8,84.5,112.8,84.5,125z M161.1,124.7c0,11.3,0,22.6,0,33.9c0,1.1-0.4,2.5,0.2,3.2c0.5,0.6,1.6,0.1,2.5,0.2
			c0.8,0.1,1-0.2,1-1.2c-0.1-23.9,0-47.9,0-71.8c0-0.2,0-0.4,0-0.6c0.1-0.5-0.1-0.7-0.5-0.6c-0.7,0.1-1.5,0.1-2.2,0
			c-0.8-0.1-1,0.1-1,1.2C161.1,100.8,161.1,112.7,161.1,124.7z M195.2,125c0-11.5,0-22.9,0-34.4c0-1,0.3-2.1-0.2-2.8
			c-0.5-0.6-1.4-0.1-2.2-0.2c-0.8-0.1-1.1,0.2-1.1,1.3c-0.2,23.3-0.2,46.6,0,69.9c0,1-0.3,2.3,0.1,2.9c0.4,0.7,1.5,0.1,2.3,0.2
			c0.8,0.1,1-0.2,1-1.2C195.2,148.8,195.2,136.9,195.2,125z M99.4,124.8c0,11.4,0,22.8,0,34.2c0,1-0.3,2.3,0.2,2.8
			c0.5,0.6,1.5,0.1,2.3,0.1c0.7,0.1,0.9-0.2,0.9-1.2c0.1-23.4,0.2-46.8,0-70.1c0-1,0.3-2.3-0.2-3c-0.4-0.5-1.5-0.1-2.3-0.2
			c-0.8-0.1-0.9,0.3-0.9,1.2C99.4,100.8,99.4,112.8,99.4,124.8z"/>
		<path class="st7" d="M145.7,80c0.1,0.1,0.1,0.1,0.2,0.2C145.7,80.3,145.7,80.1,145.7,80z"/>
	</g>
	<path class="st0" d="M225,199.7"/>
	<path class="st0" d="M193.1,176c1.2-3,1.6-6.4,1.9-9.7c1.3-3,1-6,0.3-9c-0.2-1.2-0.2-2.5-0.1-3.7c0.1-2.3,1-1.5,1.9-0.7
		c0.3,0.6,0.6,1.3,0.8,2c0.7,2,1.5,3.9,2.4,5.7c0.2,0.3,0.4,0.6,0.5,0.8c0.9,2.1,1.5,4.6,2.8,6.5c0.6,2,1.3,4,1.9,6
		c-0.3,0.8,0.2,1.4,0.2,2.1c1-1.1,0.6-2.7,1-4c0.6-5.2,2.4-9.7,5.3-13.6c1.4,0.7,0.9,2.3,0.9,3.5c0.1,6.1,0,12.1,0,18.1
		c-0.1,2.8-0.5,5.7-0.3,8.6c0.3,3.2-1,4-3.3,4c-9.2-0.1-18.4-0.1-27.6-0.1c-4.7,0-9.5,0-14.2,0c-28.2,0-56.5,0-84.7,0
		c-15.2-0.1-30.4,0.1-45.5-0.1c-1.3-0.3-1.1-2.1-2-2.9c0-7.5,0-15,0-22.5c0.8-1.6,0.9-3.5,1.3-5.2c1.2-2.7,2.3-5.3,3-8.3
		c0.3-0.9,0.7-1.7,1.3-2.3c2.4,0,0.5,2.8,1.5,3.7c0.1,0.8-0.1,1.6-0.5,2.2c-0.6,2.2-0.7,4.4,0.1,6.6c0.5,2.3,1.1,4.7,1.6,7
		c0.5,1.6,1.4,2.8,2.4,4c0.7,0.8,1.3,2.1,2.4,1.3c0.9-0.7,1-2,0.7-3.3c0.3-2.2,0.5-4.4-0.1-6.6c0.3-0.8,0-2,1.1-2.1
		c2.9,3.2,4.5,7.5,6.1,12c1.1-2.2,0.7-4.8,1.5-6.9c0.6-2.5,0.6-5.4,0.2-9.1c-0.4-3.5-0.7-7-1.4-10.5c-0.3-1.4-0.5-3.2,1.4-1.4
		c0.2-0.1,0.3-0.1,0.5,0c2.1,2,3.7,4.5,5.6,6.8h0.2c1.1,1.9,2.7,3.4,3.8,5.3c0.7,1,1.5,2,2.2,3c0.1,0.1,0.2,0.3,0.2,0.3
		c-0.1,0.3,0.2,0.4,0.2,0.4c0.1-2.3,0.3-4.5-0.1-6.8c-0.3-1.6,0.4-2.9,0.5-4.4c0.7-1.7,0.7-3.6,1-5.4c0.8-2.4,1-5.1,1.9-7.5
		c0.6-2.5,1.2-4.9,1.8-7.3c1.5-0.9,1.4-3.6,3.1-4.3c0.5,0,0.9,0.1,1.2,0.6c0.2,0.9,0.1,1.9,0,2.8c-0.5,4.3-0.1,8.6-0.2,12.9
		c0.1,0.4,0.4,0.6,0.7,0.6c0.7,1.2,0.4,2.5,0.4,3.9c0.6,4.4,1.5,8.6,4,11.9c1,2.1,1.9,4.5,4.1,5.1c1.1-2.9,0.5-5.9,0.4-8.8
		c0.2-4.8,0.9-9.5,2-14.1c1.1-1.8,1.6-4.2,2.6-6.1l-0.1-0.1c1.7,0.2,0.8,1.8,1,2.8c0.3,2.8-0.5,5.7,0.4,8.6
		c0.8,5.2,1.5,10.4,4.1,14.7c2,3.5,3,3.5,4.4-0.3c0.6-1.5,1-3,1.7-5.2c1.7,3.9,2.7,7.3,3.3,11c-0.4,1.1-0.5,2.1,0.3,2.9
		c0.3,0.3,0.6-0.4,0.8-0.8c0.7-2.5,2.1-4.6,2.1-7.4c1.4-4,2.8-8.1,5.3-11.3c1.4-1,1.4-4,3.6-3.6c0.5,1.1,0.5,2.4,0.4,3.7
		c0,0.6,0.1,1.2-0.4,1.6c-1.3,4-1.5,8.4-2.1,12.7c0.1,1.5,0.1,3,0.1,4.4c0.5,2,1.2,2.7,2.6,1c0.6-0.8,1.3-1.5,1.6-2.5
		c0-0.9,0.8-0.7,1.1-1.3c2.2-3.9,4.5-7.8,6-12.3c-0.1-0.2-0.1-0.4,0.1-0.5c1.3-1.4,1.7-3.4,2.2-5.3v0.1c0.9-1.9,1.3-4,2.1-5.9
		c0.7-0.9,1.4-1.9,1.9-3c0.2-0.2,0.5-0.3,0.7-0.1c0.1,0.3,0.1,0.5,0.1,0.8c0.6,3.5,0.6,7.1,1.3,10.6v-0.1c0.5,3.2,0.6,6.5,1.2,9.7
		c1,1.9,1,4.1,1.2,6.2c0.1,0.8-0.1,2.9,1.4,1.1c1.4-2.7,2.7-5.3,3.2-8.4c0.3-1.1,0.5-2.3,0.7-3.5c1.4-0.6,0.1-3.3,1.8-3.7
		c1.9,4.2,3,8.8,3.9,13.4c-0.5,1.8,0.6,3.7-0.1,5.1c-0.1-1.4,1-2.7,1.5-4.3c-0.3-1.6,0.2-3.2,0.6-4.7c2.1-6.8,1.7-13.8,1.8-20.8
		c0.5-1.8,0.2-3.6,0.2-5.4c0.1-0.6,0.1-1.4,0.7-1.3c0.5,0,0.6,0.8,0.9,1.3c1.8,5.8,3.2,11.7,5.2,17.4c0.6,3,1.6,5.7,1.4,8.9
		c0.1,3.9-0.3,7.7-0.8,11.4c0.7-1.6,2.6-2,3.2-3.9c1.9-4.2,4.5-7.8,6.1-12.1c0.5-1.2,0.9-2.3,1-3.7c1.1-0.7,0.8-2,0.8-3.2
		c0.1-1-0.2-2.2,0.9-2.7c2,2.3,3,5.4,4.7,7.8c1.3,2.8,2,5.9,3.6,8.5c0.8,1.1,0.8,2.5,1.3,3.7c0.3,1,0.2,2.9,1.4,2.8
		c1,0,1.3-1.7,1.9-2.6c0.8-1.2,0-3.4,1.7-4c2.1,2.3,1.4,5.7,2.2,8.5c0.2,0.6-0.1,1.5,0.3,2.1c0.2,0.4,0-0.2,0.3,0.2
		C192.8,176.5,193,176.3,193.1,176z"/>
</g>
<g id="Layer_2">
</g>
</svg>
