<?xml version="1.0" encoding="utf-8"?>
<!-- Generator: Adobe Illustrator 21.1.0, SVG Export Plug-In . SVG Version: 6.00 Build 0)  -->
<svg version="1.1" id="Layer_1" xmlns="http://www.w3.org/2000/svg" xmlns:xlink="http://www.w3.org/1999/xlink" x="0px" y="0px"
	 viewBox="0 0 252 252" style="enable-background:new 0 0 252 252;" xml:space="preserve">
<style type="text/css">
	.st0{fill:#FFFFFF;stroke:#A6001D;stroke-width:2;stroke-miterlimit:10;}
	.st1{fill:#A6001D;}
</style>
<circle class="st0" cx="126.2" cy="126.2" r="123.8"/>
<g>
	<path class="st1" d="M157.5,61c-4.5,7.8-9.1,15.6-13.6,23.4c-0.9,1.6-1.6,2.5-3.7,1.5c-3.1-1.4-5.9,0.1-8.3,2
		c-4,3.1-6.9,7.2-9.8,11.2c-10.4,14.4-18.5,30-24.8,46.5c-1,2.6-1.8,5.3-1.9,8.1c-0.1,2.1,0.2,4.3,2.2,5.5c1.9,1.2,1.5,2.4,0.5,4
		c-8.9,15.2-17.8,30.4-26.6,45.7c-1.3,2.3-2.3,2.3-4.1,0.6c-7.1-6.7-9.9-15.3-11.2-24.5c-2.2-15.5,0.5-30.5,5.6-45
		c10.6-30.3,26.7-57.5,48.8-80.9c10.7-11.3,23-20.4,38.3-24.7c6.7-1.9,13.4-2.4,20.2-0.7c2.4,0.6,3.5,1.4,1.8,4.1
		C166.4,45.5,162,53.2,157.5,61C157.5,61,157.5,61,157.5,61z"/>
	<path class="st1" d="M163.7,66.5c4.5-7.7,9-15.4,13.4-23.1c1.1-1.9,2-2.4,4-1.1c3.7,2.4,7.6,4.4,11.4,6.7c4.6,2.8,5.6,6.5,2.9,11.2
		c-7.2,12.6-14.5,25.1-21.8,37.6c-2.8,4.8-6.5,5.7-11.5,3c-3.8-2.1-7.5-4.5-11.4-6.6c-2-1.1-1.9-2.1-0.9-3.8
		C154.6,82.4,159.1,74.4,163.7,66.5z"/>
	<path class="st1" d="M90.9,191.7c4.4-7.5,8.8-15,13.1-22.6c1.3-2.3,2.4-2.5,4.5-1.1c3.6,2.3,7.4,4.3,11.1,6.5
		c4.4,2.7,5.5,6.4,3,10.9c-7,12.3-14.1,24.5-21.3,36.7c-2.8,4.8-6.6,5.8-11.4,3.1c-3.8-2.1-7.6-4.5-11.4-6.6c-1.9-1-2-2-1-3.8
		C81.9,207.1,86.4,199.4,90.9,191.7z"/>
</g>
</svg>
