<?xml version="1.0" encoding="utf-8"?>
<!-- Generator: Adobe Illustrator 21.1.0, SVG Export Plug-In . SVG Version: 6.00 Build 0)  -->
<svg version="1.1" id="Layer_1" xmlns="http://www.w3.org/2000/svg" xmlns:xlink="http://www.w3.org/1999/xlink" x="0px" y="0px"
	 viewBox="0 0 252 252" style="enable-background:new 0 0 252 252;" xml:space="preserve">
<style type="text/css">
	.st0{fill:#FFFFFF;stroke:#A6001D;stroke-width:2;stroke-miterlimit:10;}
	.st1{fill:#FEFEFE;}
	.st2{fill:#EEEEEE;}
	.st3{fill:#F6F6F6;}
	.st4{fill:#383838;}
	.st5{fill:#F4F4F4;}
	.st6{fill:#FDFDFD;}
	.st7{fill:#FFFFFF;}
	.st8{font-family:'Calibri';}
	.st9{font-size:302.0055px;}
</style>
<g id="Layer_1_1_">
	<circle class="st0" cx="126.2" cy="126.2" r="123.8"/>
	<g>
		<path class="st1" d="M152.1,65.6c-5.3-0.7-11.5-1.7-17.4-3.8c-2.7-0.9-4.4-1.1-6.3,1.9c-3.7,5.7-10.6,5.7-14.3,0
			c-2-3-3.7-3.1-6.6-2.1c-6.1,2.1-12.4,3.6-18.9,4c-5.6,0.4-9.7-3.1-9.8-7.8c-0.1-4.9,4.4-8.5,10.1-8c6.8,0.6,13.5,2.2,19.9,4.5
			c2.6,0.9,4.2,0.9,6.4-1.3c4-4.1,8.3-4.1,12.3,0.1c1.9,2,3.2,1.8,5.4,1.1c6.4-2.3,13.1-3.8,19.9-4.4c5.6-0.5,9.7,2.9,9.8,7.8
			C162.6,62.4,158.6,65.8,152.1,65.6z"/>
		<path class="st2" d="M70,183.5c0.8-7.4,4.5-11.4,12.1-12.2C79.3,176.8,76.2,181.3,70,183.5z"/>
		<path class="st3" d="M120.3,84.1c0.9-1.2,1.3-2.8,3.1-3.5c0,4.9,0,9.7,0,14.5c-2.5,1.2-3.5,0.2-3.4-2.4
			C120.1,89.9,119.6,87,120.3,84.1z"/>
		<path class="st4" d="M25.9,162.4"/>
		<path class="st4" d="M38.5,164.4"/>
		<path class="st5" d="M120.3,84.1c0.1,2.6,0.2,5.2,0.2,7.8c-0.1,2.1,0.7,3.4,3,3.2c-1.5,1.5-3.6,2-3.8-0.5
			C119.3,91.2,118.5,87.5,120.3,84.1z"/>
		<path class="st6" d="M114.6,112.4"/>
		<path class="st6" d="M114.6,117.2"/>
	</g>
	<path class="st0" d="M225,199.7"/>
	<text transform="matrix(1.2719 0 0 1 43 231.2373)" class="st7 st8 st9">?</text>
</g>
<g id="Layer_2">
</g>
<g>
	<path class="st0" d="M33.7,101.5c30.6-30.8,61-61.5,91.7-92.4c31.5,30.7,62.9,61.3,94.9,92.4C157.5,101.5,95.6,101.5,33.7,101.5z"
		/>
	<path class="st0" d="M127.6,120.3c0,30.9,0,61.2,0,91.9c-27.4,0-54.6,0-82.1,0c0-34.3,0.7-76.2,0.7-110.7c53.9,0,107.6,0,161.6,0
		c0,34.4-0.7,76.1-0.7,110.7c-5.4,0-10.9,0-16.9,0c0-30.6,0-61.1,0-91.9C169.1,120.3,148.6,120.3,127.6,120.3z M60.4,130.8
		c0,17,0,33.7,0,50.6c16.9,0,33.6,0,50.5,0c0-17,0-33.7,0-50.6C94.1,130.8,77.5,130.8,60.4,130.8z"/>
	<path class="st0" d="M82.6,159.2c0,5.2,0,10,0,15c-5.1,0-10,0-15.1,0c0-5,0-9.9,0-15C72.5,159.2,77.3,159.2,82.6,159.2z"/>
	<path class="st0" d="M103.8,174.3c-4.6,0-9.1,0-13.8,0c0-5.1,0-10,0-15.1c4.6,0,9,0,13.8,0C103.8,164.1,103.8,168.9,103.8,174.3z"
		/>
	<path class="st0" d="M82.5,151.6c-5.2,0-10,0-15,0c0-4.6,0-9,0-13.7c5,0,9.9,0,15,0C82.5,142.5,82.5,146.9,82.5,151.6z"/>
	<path class="st0" d="M90,151.6c0-4.7,0-9.1,0-13.6c4.7,0,9.2,0,13.9,0c0,4.6,0,9,0,13.6C99.3,151.6,94.7,151.6,90,151.6z"/>
</g>
</svg>
