<?xml version="1.0" encoding="utf-8"?>
<!-- Generator: Adobe Illustrator 21.1.0, SVG Export Plug-In . SVG Version: 6.00 Build 0)  -->
<svg version="1.1" xmlns="http://www.w3.org/2000/svg" xmlns:xlink="http://www.w3.org/1999/xlink" x="0px" y="0px"
	 viewBox="0 0 252 252" style="enable-background:new 0 0 252 252;" xml:space="preserve">
<style type="text/css">
	.st0{fill:#FFFFFF;stroke:#A6001D;stroke-width:2;stroke-miterlimit:10;}
	.st1{fill:#FEFEFE;}
	.st2{fill:#EEEEEE;}
	.st3{fill:#F6F6F6;}
	.st4{fill:#383838;}
	.st5{fill:#F4F4F4;}
	.st6{fill:#FDFDFD;}
	.st7{font-family:'Calibri';}
	.st8{font-size:302.0055px;}
</style>
<g id="Layer_1">
	<circle class="st0" cx="126.2" cy="126.2" r="123.8"/>
	<g>
		<path class="st1" d="M152.1,65.6c-5.3-0.7-11.5-1.7-17.4-3.8c-2.7-0.9-4.4-1.1-6.3,1.9c-3.7,5.7-10.6,5.7-14.3,0
			c-2-3-3.7-3.1-6.6-2.1c-6.1,2.1-12.4,3.6-18.9,4c-5.6,0.4-9.7-3.1-9.8-7.8c-0.1-4.9,4.4-8.5,10.1-8c6.8,0.6,13.5,2.2,19.9,4.5
			c2.6,0.9,4.2,0.9,6.4-1.3c4-4.1,8.3-4.1,12.3,0.1c1.9,2,3.2,1.8,5.4,1.1c6.4-2.3,13.1-3.8,19.9-4.4c5.6-0.5,9.7,2.9,9.8,7.8
			C162.6,62.4,158.6,65.8,152.1,65.6z"/>
		<path class="st2" d="M70,183.5c0.8-7.4,4.5-11.4,12.1-12.2C79.3,176.8,76.2,181.3,70,183.5z"/>
		<path class="st3" d="M120.3,84.1c0.9-1.2,1.3-2.8,3.1-3.5c0,4.9,0,9.7,0,14.5c-2.5,1.2-3.5,0.2-3.4-2.4
			C120.1,89.9,119.6,87,120.3,84.1z"/>
		<path class="st4" d="M25.9,162.4"/>
		<path class="st4" d="M38.5,164.4"/>
		<path class="st5" d="M120.3,84.1c0.1,2.6,0.2,5.2,0.2,7.8c-0.1,2.1,0.7,3.4,3,3.2c-1.5,1.5-3.6,2-3.8-0.5
			C119.3,91.2,118.5,87.5,120.3,84.1z"/>
		<path class="st6" d="M114.6,112.4"/>
		<path class="st6" d="M114.6,117.2"/>
	</g>
	<path class="st0" d="M225,199.7"/>
	<text transform="matrix(1.2719 0 0 1 43 231.2373)" class="st0 st7 st8">?</text>
</g>
<g id="Layer_2">
</g>
</svg>
