<?xml version="1.0" encoding="utf-8"?>
<!-- Generator: Adobe Illustrator 21.1.0, SVG Export Plug-In . SVG Version: 6.00 Build 0)  -->
<svg version="1.1" id="Layer_1" xmlns="http://www.w3.org/2000/svg" xmlns:xlink="http://www.w3.org/1999/xlink" x="0px" y="0px"
	 viewBox="0 0 252 252" style="enable-background:new 0 0 252 252;" xml:space="preserve">
<style type="text/css">
	.st0{fill:#FFFFFF;stroke:#A6001D;stroke-width:2;stroke-miterlimit:10;}
</style>
<circle class="st0" cx="126.2" cy="126.2" r="123.8"/>
<g>
	<path class="st0" d="M198.6,215.9c-0.1-0.2-0.3-0.2-0.5-0.3c-5-1-8.6-3.9-11.2-8.1c-1.6-2.5-2.7-5.4-3.7-8.1
		c-1.6-4.4-4.1-8.2-7.4-11.5c-18.1-18-36.1-36.1-54-54c-0.8-0.8-0.8-1.2,0-2c2.9-2.8,5.8-5.7,8.7-8.7c0.7-0.7,1.1-0.7,1.8,0
		c18.5,18,37.1,36,55.7,54c2.8,2.7,5.8,4.6,9.4,5.9c2.9,1.1,5.9,2,8.7,3.3c5.1,2.4,8.3,6.2,9.2,11.8c0,0.1,0.2,0.2,0.2,0.3
		c0,1.5,0,2.8,0,4.3c-0.8,5.8-4.3,9.6-9.3,12.2c-1.3,0.7-2.7,0.6-4,0.8c-0.2,0-0.3,0-0.5,0c-0.6-0.2-1.1-0.2-1.8,0
		C199.3,215.9,199,215.9,198.6,215.9z"/>
	<path class="st0" d="M201.9,215.9c1-0.5,2.1-0.5,3.2-0.9c5-2.2,8.3-5.8,9.8-11.1c0.1-0.4,0-0.8,0.4-1.1"/>
	<path class="st0" d="M215.3,215.1"/>
	<path class="st0" d="M199.6,215.9c0.6-0.4,1.1-0.4,1.8,0C200.8,215.9,200.2,215.9,199.6,215.9z"/>
	<path class="st0" d="M32.6,195.9c-0.2-1.9,0.5-3.4,2-4.9c14.5-14.5,29.1-29.1,43.6-43.6c0.5-0.5,1.1-0.8,1.8-1
		c1.8-0.2,3.3-0.9,4.8-1.8c3-1.7,5.7-3.8,7.9-6.4c1.9-2.1,3.1-4.7,2.7-7.7c-0.1-0.5,0.2-0.7,0.5-0.9c1.2-1.2,2.4-2.4,3.5-3.6
		c0.5-0.5,0.9-0.5,1.5-0.3c3.5,0.8,6.4,2.8,8.7,5.4c0.7,0.7,1,0.6,1.7-0.1c24.6-24.6,49.3-49.3,73.9-74c2.8-2.8,5.2-6.2,7.7-9.3
		c1.5-1.8,3.1-3.5,4.9-5.1c2.5-2,5.1-4.1,7.5-6.1c0.5-0.5,0.8-0.5,1.4,0.1c1.2,1.3,2.5,2.6,3.8,3.8c0.4,0.4,0.5,0.7,0.1,1.1
		c-2.8,3.3-5.3,6.7-8.2,9.9c-1.9,2.1-4.3,3.8-6.6,5.5c-3.4,2.8-6.7,5.7-9.9,8.8c-23.3,23.3-46.5,46.6-69.9,70
		c-0.8,0.8-0.8,1.1,0,1.8c0.3,0.2,0.5,0.7,0.8,0.9c2.4,2.1,3.6,5,4.4,8c0.2,0.5,0.2,0.8-0.2,1.2c-0.6,0.5-1.1,1.1-1.7,1.7
		c-1.3,1.4-2.5,2.8-4.8,2.4c-1.4-0.2-2.9,0.5-4.1,1.4c-4.7,3.5-8.3,7.8-9.7,13.6c-0.3,1.1-0.8,1.9-1.5,2.7
		C85,183.8,70.7,198,56.5,212.4c-2.1,2.1-4.4,2.4-7,2.1c-1.7-0.2-3.4-0.8-4.8-1.7c-5.4-3.1-9.6-7.4-11.6-13.5
		C32.8,198.3,32.5,197.1,32.6,195.9z"/>
	<path class="st0" d="M53.5,38c4.1,0,8,0.4,11.9,1.9c1.9,0.8,3.6,1.9,5.1,3.4c4.1,4.3,6,9.6,7.2,15.2c0.6,3,1.3,6,2.3,8.9
		c1.7,5.1,4.6,9.3,8.4,13c11.9,11.5,23.7,23,35.6,34.5c0.8,0.8,0.8,1.1,0,1.9c-2.9,2.8-5.7,5.6-8.5,8.5c-0.8,0.8-1.1,0.8-1.9,0
		c-11.3-11.3-22.6-22.4-33.7-33.9c-4.1-4.3-9-6.5-14.8-7.3c-4.4-0.6-8.7-1-12.9-1.9c-4.1-0.9-7.6-2.8-10.3-6
		c-3.1-3.6-5.9-7.3-7.7-11.7c-0.5-1.4-1.1-2.8-0.9-4.3c0.1-1.1,0.5-1.5,1.5-1.1c1.2,0.4,2.3,1.1,3.3,1.8c2.7,1.8,5.4,3.8,8,5.7
		c1.1,0.8,2.2,1,3.5,0.6c2.5-0.7,4.7-2,6.6-3.8c1.6-1.7,2-3.8,2.2-6c0.2-2.1,0-4.1-0.4-6.1c-0.2-1-0.7-1.8-1.6-2.3
		c-3.2-1.9-6.5-3.9-9.7-5.9c-0.9-0.5-1.8-1.1-2.5-1.8c-0.9-0.8-0.8-1.2,0.2-1.8c2.1-1,4.4-1.1,6.6-1.4C51.8,38,52.7,38,53.5,38z"/>
</g>
</svg>
