<?xml version="1.0" encoding="utf-8"?>
<!-- Generator: Adobe Illustrator 21.1.0, SVG Export Plug-In . SVG Version: 6.00 Build 0)  -->
<svg version="1.1" id="Layer_1" xmlns="http://www.w3.org/2000/svg" xmlns:xlink="http://www.w3.org/1999/xlink" x="0px" y="0px"
	 viewBox="0 0 252 252" style="enable-background:new 0 0 252 252;" xml:space="preserve">
<style type="text/css">
	.st0{fill:#FFFFFF;stroke:#A6001D;stroke-width:2;stroke-miterlimit:10;}
	.st1{fill:#FCFCFC;stroke:#A6001D;stroke-width:2;stroke-miterlimit:10;}
	.st2{fill:#FEFEFE;stroke:#A6001D;stroke-width:2;stroke-miterlimit:10;}
	.st3{fill:#F6F6F6;}
	.st4{fill:#383838;}
	.st5{fill:#F4F4F4;}
	.st6{fill:#FDFDFD;}
</style>
<circle class="st0" cx="126.2" cy="126.2" r="123.8"/>
<g>
	<path class="st0" d="M229.7,168c0,4.2-0.2,8.4,0.1,12.6s-1.8,6.8-5.5,7.9c-9.4,2.8-19,2.8-28.3-0.6c-3.8-1.4-5.4-3.8-5.2-8
		c0.4-5.3,0.1-10.5,0.2-15.8c0.1-4.1-1.8-6.1-6.1-6c-8.4,0.2-16.8,0.1-25.2,0c-2.2-0.1-3.3,0.7-4.5,2.6
		c-13.1,20.1-39.1,24.3-57.9,9.1c-3.5-2.8-4.8-2.2-6.1,1.6c-1.6,4.5-4.1,8.5-7.2,12.1c-4.9,5.8-11.1,8.9-18.8,8.8
		c-4.7-0.1-9.5-0.4-14.2,0.1c-15.3,1.4-24.6-6.7-30.1-19.6c-7.9-18.6-7.9-37.7,0.8-56.4c5.6-12,14.5-19.5,28.8-18.3
		c3.3,0.3,6.7,0.3,10,0c15.7-1.4,25,6.9,30.6,20.4c1.7,4.1,2.5,4.4,6,1.5c3.3-2.8,4.9-5.4,4.4-9.6c-0.7-7.2-0.6-14.3,8.5-16.7
		c1.5-0.4,1.3-1.9,1.3-3.1c0-5.1,0.1-10.1,0-15.3c-0.1-4-1.8-5.5-6-4.4c-5,1.3-10.3,2.2-15.4,3c-9.7,1.5-18.4-5.4-19-14.9
		c-0.7-9.8,6.6-17.5,16.6-17.3c3.5,0.1,7,0.7,10.4,1.4c6.3,1.3,12.3,3.6,18.9-0.1c3.2-1.8,7.8-1.3,11.2,0.8c3.2,1.9,6.1,1.6,9.3,0.8
		c4.4-1.1,8.9-2,13.4-2.7c7.1-1.1,13.4,0.8,17.4,7.1c3.7,5.8,3.8,11.9,0,17.7c-4.2,6.3-10.4,8.4-17.8,7c-4.4-0.8-8.9-1.5-13.3-2.7
		c-3.6-0.9-4.8,0.3-4.7,3.8c0.1,3,0.2,6,0,8.9c-0.4,5.4-0.5,10.1,6.5,11.7c3.6,0.9,5.2,4.4,5,8.4c-0.1,0.9,0.2,1.8-0.1,2.6
		c-2.7,9.1,4.5,13.2,9.5,18.5c1.3,1.4,3,0.7,4.5,0.7c13.2,0.1,26.3-0.1,39.4,0.1c18.5,0.2,30.6,9.9,32.7,26.7
		C230.3,157.4,229.8,162.8,229.7,168L229.7,168z"/>
	<path class="st1" d="M198.4,192.9c2,6.4,3.8,12,5.4,17.6c1,3.3,1.2,6.6-2.2,8.9c-2.2,1.5-4.6,1.6-6.9,0c-3.2-2.2-3.6-5.1-2.4-8.7
		C194.1,205,195.3,199,198.4,192.9z"/>
	<path class="st2" d="M152.1,65.6c-5.3-0.7-11.5-1.7-17.4-3.8c-2.7-0.9-4.4-1.1-6.3,1.9c-3.7,5.7-10.6,5.7-14.3,0
		c-2-3-3.7-3.1-6.6-2.1c-6.1,2.1-12.4,3.6-18.9,4c-5.6,0.4-9.7-3.1-9.8-7.8c-0.1-4.9,4.4-8.5,10.1-8c6.8,0.6,13.5,2.2,19.9,4.5
		c2.6,0.9,4.2,0.9,6.4-1.3c4-4.1,8.3-4.1,12.3,0.1c1.9,2,3.2,1.8,5.4,1.1c6.4-2.3,13.1-3.8,19.9-4.4c5.6-0.5,9.7,2.9,9.8,7.8
		C162.6,62.4,158.6,65.8,152.1,65.6z"/>
	<path class="st0" d="M70,183.5c0.8-7.4,4.5-11.4,12.1-12.2C79.3,176.8,76.2,181.3,70,183.5z"/>
	<path class="st3" d="M120.3,84.1c0.9-1.2,1.3-2.8,3.1-3.5c0,4.9,0,9.7,0,14.5c-2.5,1.2-3.5,0.2-3.4-2.4
		C120.1,89.9,119.6,87,120.3,84.1z"/>
	<path class="st4" d="M25.9,162.4"/>
	<path class="st4" d="M38.5,164.4"/>
	<path class="st5" d="M120.3,84.1c0.1,2.6,0.2,5.2,0.2,7.8c-0.1,2.1,0.7,3.4,3,3.2c-1.5,1.5-3.6,2-3.8-0.5
		C119.3,91.2,118.5,87.5,120.3,84.1z"/>
	<path class="st6" d="M114.6,112.4"/>
	<path class="st6" d="M114.6,117.2"/>
</g>
</svg>
